<?xml version="1.0" encoding="UTF-8"?>
<svg version="1.1" viewBox="0 0 4096 1924" width="auto" height="auto" xmlns="http://www.w3.org/2000/svg">
<path transform="translate(2244,188)" d="m0 0h1662l1 4-8 29-13 49-15 56-10 36-10 38-14 51-11 42-13 48-10 38-20 75-19 71-11 40-11 42-13 47-10 38-23 86-15 55-11 42-13 48-11 42-22 82-19 70-12 44-11 42-13 48-11 42-4 15-4 3-178 1 11 15 14 19 13 18 14 19 10 14 26 36 12 16 14 19 13 18 28 38 7 9 2 4h-659l-12-16-10-14-65-90-28-38-39-54-9-13-111-1h-708l-6-2 4-16 13-49 19-70 22-82 30-112 17-64 15-56 23-86 15-55 10-37 27-101 44-165 21-78 17-63 22-82 14-52 19-71 15-57 7-24zm1021 414-604 1-14 53-19 70-26 98-23 86-15 55-11 42-15 56-8 29v4l31 1h503l69-1 3-8 14-52 27-101 25-94 13-49 26-96 17-63 8-29 1-2z" fill="currentColor"/>
<path transform="translate(543,188)" d="m0 0h528l-1 7-18 67-29 109-15 56-24 90-24 89-8 30-2 6h605l2-10 18-67 30-112 17-64 12-45 23-86 16-60 3-9 1-1h528l1 3-7 24-15 57-23 85-12 44-11 42-15 56-20 75-44 164-14 51-10 38-54 202-12 44-10 38-25 93-17 62-11 42-15 56-24 90-13 48-2 7-3 2h-527l1-8 15-55 24-90 18-68 17-64 19-71 20-74 6-24h-601l-3-1-1 7-20 75-11 42-13 49-11 42-15 57-18 67-11 42-13 48-6 23-3 3h-525l-4-1 1-6 7-24 14-53 22-82 17-62 17-64 14-51 11-42 18-68 20-75 17-63 20-74 17-63 19-71 17-64 15-56 17-64 23-85 17-63 22-82 28-105z" fill="currentColor"/>
</svg>
