<svg xmlns="http://www.w3.org/2000/svg" width="300" height="800" viewBox="0 0 300 800" fill="none">
    <path d="M118.5 2.5L127.5 1.5L148.5 2.5L164 5.5L175 10.5L176 13L181.5 76L183 87.5L210 85.5L211.5 87.5V90.5L199.5 95.5L192.5 97L193.5 105.5L191 110.5L186.5 119.5L179.5 123L179 135L181.5 136L183 141L179 164L176.5 169.5L166.5 173L155 173.5C150.833 173 142.3 172 141.5 172C140.7 172 139.833 174.333 139.5 175.5L151 182.5L156.5 189L199.5 209L209 213.5L213.5 218.5L216 226.5L216.5 233.5L216 243.5L208 255.5L218.5 308L223 311C223.5 312 224.5 314.2 224.5 315C224.5 315.8 240.833 352 249 370L255.5 376L267 397H273L274.5 404L268 407L265.5 410.5L283 434L287 438L293.5 449.5L298.5 463.5L297.5 466L296 467L292.5 465.5L289 462C288.5 464.167 287.5 468.6 287.5 469C287.5 469.4 284.5 473.5 283 475.5L278 479.5L283 482.5L283.5 487.5L282 490L274.5 491L268.5 581L257 753L258.5 760L255 774.5L248 773.5V759L249.5 754V750.5L253 666.5L259 558L263.5 491L253.5 488.5V482.5C255.167 481.5 258.6 479.5 259 479.5C259.4 479.5 255.5 476.167 253.5 474.5L249.5 466L248.5 460.5L246 458L239.5 444.5L235.5 433.5L236 426V422L226.5 425H223L220.5 418L223 416L216.5 384.5L194.5 334L193 327V320L196 314L197 309.5L200 302.5L193 269C191.167 269.5 187.4 270.6 187 271C186.6 271.4 179.5 305.833 176 323L168 332V345L174 348L176 365.5L188.5 367.5L197 373.5L197.5 378L199.5 379.5L200.5 386V393.5C199.667 394.5 197.9 396.6 197.5 397C197.1 397.4 196 406.167 195.5 410.5L190 421L188.5 449.5L184 457L174 552.5L176 555.5H180.5L186 558.5L188.5 569.5V587.5L186 595.5L182.5 723.5L175.5 729.5L175 734C180.167 736.667 190.6 742.1 191 742.5C191.4 742.9 192.167 748 192.5 750.5L199.5 747.5L212.5 753L222.5 761.5L228.5 769.5L231 780V783L228.5 786L220.5 789.5L212.5 790.5C209.833 791 204.4 792 204 792C203.6 792 194.5 791 190 790.5L178 788V783H172.5L162 780L155.5 776L147.5 778.5L124 770L119.5 768V765.5V732L121 729L125.5 728L121 719.5L119.5 699L126 578.5L129.5 564.5L134.5 556.5L148.5 550L158.5 457L154 447L157 443.5L153.5 436.5L150 441H138L126.5 439.5L113 434L111.5 447.5L107 455L97.5 552L100.5 553.5L104.5 557.5L105.5 564.5L107.5 566.5L108.5 572.5V579.5L105.5 588.5L102 650L98 714.5L96.5 730.5L92 738.5L89 766.5L85.5 768L84.5 791.5L80.5 795L70.5 797.5L60.5 798C55.8333 797.833 46.2 797.5 45 797.5C43.8 797.5 35.5 794.833 31.5 793.5L27 788.5L26.5 783.5L28.5 771.5L33.5 762.5L39 757.5L43 733.5L39 727L42 686L52.5 569L58 556.5L64 552L69 551L72 548.5L80 454L76 446L79 419L77 413.5L76 406V395.5L72.5 395L70 388L71 380L73.5 375L78 376.5L79 370.5L100.5 362.5L103 346.5L110 343V327L98.5 323.5L96.5 321.5L90 307L83.5 309.5L80 306L76 300.5L74.5 293.5L80 289.5L75 279L70 274.5L65 269.5L58 271.5C55.8333 270.667 51.4 268.9 51 268.5C50.6 268.1 44.5 303.333 41.5 321L43.5 324L44.5 328L48.5 384.5L49.5 390L53.5 396.5L54.5 414.5L57 415.5L58 422L49 424L51 429L53.5 430.5L57 435L60 441.5V449.5L59.5 455L61.5 457.5L61 463L58 465.5V470L56.5 473L50 477.5L44.5 479.5H40H34H28.5L25 478.5L20 472L19 468.5L16 464.5L14.5 451.5L13 432L14 429.5L5 429L1.5 428.5V421.5L4.5 419V402L7.5 391.5L9 365L8.5 335V327L11 321L16.5 316L25.5 308.5L35 257.5L29 252.5L24.5 245L21.5 235.5L22 224L27 214.5L35 206.5L44.5 201L83 190L77 187L73 185L68.5 179L69.5 176L73 181L77.5 184L85.5 186L92.5 184L93.5 176L97.5 172L108 169.5V160.5L97.5 153L95.5 148.5L94.5 125V105L85.5 97L74 84L88.5 79.5L93 79L90 51L85.5 17.5L91 13.5L110 4.5L118.5 2.5Z" fill="white"/>
    <path d="M104.54 120.727C103.759 120.162 102.925 119.947 102.091 120.081C101.984 120.081 101.876 120.162 101.795 120.189C101.607 120.189 101.419 120.162 101.23 120.189C98.7548 120.593 97.3826 124.117 98.109 128.369C98.7548 132.297 100.934 135.149 103.248 135.149H103.733C103.733 135.149 103.975 135.014 104.082 134.988L104.916 137.275C105.105 137.786 105.589 138.109 106.1 138.109L106.531 138.028C107.177 137.786 107.526 137.059 107.284 136.414L106.396 133.938C106.854 133.427 107.23 132.754 107.499 131.92C107.957 130.467 108.038 128.638 107.715 126.781C107.257 124.037 106.1 121.776 104.567 120.673L104.54 120.727ZM103.275 132.62H103.221C102.576 132.62 101.096 131.032 100.584 127.965C100.073 124.871 100.961 122.799 101.688 122.691C102.333 122.691 103.813 124.306 104.324 127.346C104.836 130.44 103.948 132.512 103.275 132.62V132.62Z" fill="black"/>
    <path d="M145.706 258.946C144.63 259.108 143.715 259.861 143.177 261.045C142.72 262.041 142.585 263.278 142.774 264.516C143.177 267.099 144.872 268.956 146.783 268.956H147.213C148.289 268.767 149.204 267.987 149.742 266.83C150.2 265.834 150.334 264.597 150.146 263.359C149.715 260.588 147.778 258.623 145.679 258.946H145.706Z" fill="black"/>
    <path d="M133.33 204.272H132.792C132.092 204.326 131.554 204.918 131.554 205.617L131.715 206.182C131.339 209.304 130.182 213.42 129.132 217.107C128.648 218.829 128.191 220.497 127.814 222.004C127.679 222.542 127.921 223.134 128.406 223.403C128.89 223.699 129.509 223.618 129.913 223.214L135.536 217.779L139.411 227.331C139.599 227.815 140.083 228.111 140.594 228.111H140.702C141.267 228.058 141.725 227.681 141.832 227.143C141.832 227.089 142.882 222.811 143.769 218.533L147.859 221.708C148.29 222.03 148.882 222.057 149.339 221.761C149.797 221.465 150.012 220.927 149.877 220.389C149.797 220.039 147.671 211.698 146.406 208.254C144.63 203.492 136.451 204.003 133.357 204.191L133.33 204.272Z" fill="black"/>
    <path d="M144.146 247.565C146.326 247.242 147.698 244.686 147.267 241.78C146.837 238.901 144.738 236.856 142.559 237.206C140.379 237.529 139.007 240.085 139.438 242.991C139.841 245.655 141.644 247.619 143.662 247.619H144.146V247.565Z" fill="black"/>
    <path d="M184.91 108.834C184.668 108.7 184.291 108.592 184.022 108.592C182.192 108.458 180.981 110.583 180.658 111.256C179.986 112.601 179.744 113.893 179.986 114.915C180.147 115.615 180.551 116.153 181.17 116.503C181.331 116.583 181.735 116.745 182.058 116.772C183.833 116.906 184.99 114.942 185.421 114.108C185.825 113.328 186.443 111.794 186.067 110.395C185.878 109.749 185.502 109.211 184.91 108.834V108.834ZM184.129 112.305C183.914 112.843 183.618 113.247 183.349 113.328V113.193C183.403 112.763 183.295 112.386 183.08 112.063L183.161 111.821C183.43 111.121 183.86 110.664 184.129 110.772C184.399 110.906 184.399 111.552 184.129 112.251V112.305Z" fill="black"/>
    <path d="M199.574 315.881C196.103 316.5 194.3 321.585 195.376 327.693C196.372 333.289 199.412 337.379 202.668 337.379L203.34 337.325C206.811 336.707 208.614 331.621 207.538 325.54C206.489 319.54 202.991 315.316 199.574 315.908V315.881ZM202.883 334.796C201.161 335.119 198.686 331.998 197.851 327.235C197.717 326.401 197.636 325.621 197.636 324.868L204.82 332.24C204.39 333.693 203.69 334.635 202.883 334.769V334.796ZM197.905 321.531C198.309 319.728 199.089 318.545 200.004 318.383H200.246C201.914 318.383 204.228 321.397 205.036 325.944C205.224 327.047 205.305 328.123 205.278 329.119L197.905 321.558V321.531Z" fill="black"/>
    <path d="M18.411 342.814H18.8415C23.0659 342.814 26.6175 338.133 27.1019 331.89C27.344 328.904 26.8059 326.025 25.622 323.764C24.3305 321.316 22.4201 319.89 20.2407 319.729C15.828 319.379 12.0611 324.222 11.5498 330.68C11.227 334.554 12.2225 338.24 14.1867 340.527C15.3706 341.926 16.8235 342.707 18.411 342.841V342.814ZM19.7833 322.231H20.0254C21.3169 322.338 22.5008 323.307 23.3618 324.948C24.3305 326.778 24.761 329.173 24.5457 331.675C24.4381 333.128 24.0883 334.5 23.6309 335.711L15.9087 324.948C16.9581 323.307 18.3303 322.258 19.7833 322.258V322.231ZM14.0521 330.841C14.1329 329.684 14.375 328.581 14.6979 327.585L22.2856 338.186C21.2362 339.559 19.9447 340.393 18.5994 340.258C17.4693 340.178 16.6083 339.451 16.0971 338.832C14.5903 337.056 13.81 333.989 14.0521 330.814V330.841Z" fill="black"/>
    <path d="M283.872 467.123C283.254 466.827 282.473 467.096 282.177 467.715C281.612 468.899 280.886 470.002 280.025 470.998C279.567 471.536 279.621 472.316 280.159 472.8C280.401 473.016 280.697 473.096 280.993 473.096C281.343 473.096 281.693 472.962 281.962 472.666C282.958 471.509 283.819 470.217 284.491 468.818C284.787 468.199 284.545 467.419 283.899 467.123H283.872Z" fill="black"/>
    <path d="M254.974 466.773C254.732 466.127 253.979 465.778 253.333 466.047C252.687 466.289 252.364 467.015 252.607 467.688C253.387 469.76 254.571 471.67 256.104 473.312C256.347 473.581 256.696 473.715 257.046 473.715C257.342 473.715 257.665 473.608 257.907 473.365C258.418 472.881 258.445 472.074 257.961 471.563C256.67 470.163 255.647 468.549 254.974 466.773V466.773Z" fill="black"/>
    <path d="M280.697 450.764C280.132 451.194 280.051 451.975 280.455 452.54C281.424 453.804 282.204 455.23 282.715 456.764C282.904 457.302 283.388 457.625 283.926 457.625L284.33 457.544C285.002 457.329 285.352 456.603 285.11 455.93C284.491 454.154 283.603 452.486 282.473 450.979C282.043 450.414 281.262 450.333 280.697 450.737V450.764Z" fill="black"/>
    <path d="M299.586 462.549C298.187 457.356 294.151 449.123 293.989 448.773C293.909 448.638 293.828 448.531 293.72 448.423C293.666 448.208 293.64 447.965 293.586 447.75C292.563 444.575 286.832 436.88 286.186 436.019C286.079 435.884 285.944 435.75 285.783 435.669C284.303 433.517 271.119 415.92 267.433 410.996C267.755 410.942 268.051 410.754 268.213 410.485C268.347 410.269 268.401 410 268.428 409.704C276.446 405.399 276.312 404.081 275.962 403.166C275.962 403.031 275.962 402.924 275.908 402.789L273.917 396.708C273.917 396.708 273.917 396.708 273.917 396.681C273.917 396.681 273.917 396.655 273.917 396.628C273.89 396.547 273.809 396.466 273.756 396.385C273.729 396.332 273.702 396.305 273.675 396.251C273.513 396.063 273.325 395.847 272.975 395.713C272.114 395.363 270.204 395.578 267.728 396.143C267.002 394.61 265.011 390.466 263.262 386.995C262.912 386.295 262.536 385.515 262.159 384.708C260.168 380.511 257.692 375.291 253.952 372.869C250.105 370.394 248.221 366.196 248.221 366.169C248.221 366.169 226.965 316.715 225.189 312.544C223.467 308.508 220.776 307.782 219.835 307.647L209.61 255.798C212.247 252.462 214.776 248.534 216.929 243.852L217.009 243.61C217.117 243.206 219.189 234.327 217.413 225.448C215.906 217.053 209.395 210.138 200.704 208.147C200.65 208.147 200.623 208.147 200.57 208.147L200.731 207.393C200.839 206.801 200.543 206.263 200.005 206.021C199.897 205.887 199.762 205.779 199.574 205.725L157.707 187.994C157.492 187.913 157.304 187.886 157.088 187.913C154.317 183.043 149.555 179.464 144.388 176.37C143.608 175.832 142.855 175.401 142.155 174.998C142.209 174.433 142.263 174.002 142.317 173.733C147.644 174.379 152.218 174.675 156.093 174.675C168.847 174.675 174.362 171.661 177.618 168.998C177.833 168.782 178.91 167.571 179.636 164.343C180.282 161.383 182.246 151.401 183.78 141.607C183.807 141.337 184.533 135.149 179.636 133.481L180.416 124.063C181.089 124.01 181.789 123.848 182.515 123.579L183.161 124.063C183.376 124.225 183.645 124.306 183.914 124.306C184.21 124.306 184.506 124.198 184.748 123.983L187.062 121.938C187.412 121.642 187.574 121.158 187.466 120.727L187.358 120.189C188.004 119.516 188.623 118.763 189.242 117.956L189.753 118.198L190.291 118.332C190.641 118.332 191.018 118.171 191.26 117.902C192.202 116.826 193.17 114.646 193.278 114.404C193.493 113.92 193.385 113.328 192.982 112.951L192.417 112.44C192.74 111.713 193.036 110.906 193.305 110.099L193.735 110.045C194.193 109.991 194.596 109.641 194.758 109.211C195.484 107.139 195.484 105.848 195.484 105.713C195.484 105.229 195.215 104.798 194.812 104.583L194.085 104.206C194.031 103.749 193.95 103.292 193.816 102.861C193.816 102.78 193.735 102.7 193.708 102.646L194.354 102.135C194.838 101.731 194.946 101.031 194.596 100.52L193.655 99.1479C207.108 96.1343 212.139 91.7217 212.382 91.5064L212.731 90.9683C212.866 90.5378 214.05 86.6901 211.547 84.9412C211.278 84.7528 210.955 84.6721 210.633 84.7259C210.498 84.7259 199.789 86.2865 184.452 86.2596C183.861 85.56 183.215 82.116 183.026 78.7258C183.026 78.2683 180.309 32.7423 176.892 11.9973L176.757 11.5937C176.542 11.217 171.241 2.31091 141.779 0.266005C102.952 -2.45157 84.9786 16.5445 84.8172 16.7329C84.575 17.0288 84.4674 17.4055 84.5481 17.7822C84.5481 17.8899 86.6468 29.1637 87.8307 39.5497C88.0998 41.8637 88.4496 44.7696 88.8263 47.9446C90.1447 58.8956 91.9474 73.8018 91.9205 78.1338C78.3865 77.8378 69.9378 81.4433 69.3459 87.8471C68.7539 94.224 76.5569 100.601 87.2657 102.619C87.2926 102.619 87.3195 102.646 87.3733 102.673C93.3197 103.83 93.6695 106.493 93.6964 106.789L93.9654 146.826V146.88C93.9654 147.042 93.7502 150.728 97.1942 153.795C98.3243 154.791 101.741 157.697 107.096 161.006C107.096 161.087 107.042 161.168 107.069 161.248L107.419 168.083C105.777 168.19 103.625 168.432 101.419 169.024C101.257 169.051 100.665 169.186 99.9925 169.482C95.4184 171.096 91.1403 174.648 91.5169 182.639C91.5169 182.639 91.5169 182.774 91.5708 182.962C82.6109 185.949 75.2115 183.608 72.2787 176.881C68.7808 168.89 72.6554 156.54 85.1401 149.679C85.7589 149.356 85.9742 148.575 85.6513 147.957C85.3284 147.338 84.5481 147.122 83.9293 147.445C83.8755 147.445 83.8486 147.499 83.7947 147.526C83.7409 147.526 83.714 147.526 83.6602 147.58C67.7046 156.324 63.8031 170.935 68.2158 180.271C70.0454 184.146 73.7048 187.671 79.1399 189.07C71.6598 191.33 49.0583 198.137 46.26 198.945C44.5918 199.429 42.9774 200.209 41.7397 200.855C40.6903 201.097 39.6679 201.608 39.0221 202.631C38.8337 202.9 38.8068 203.223 38.8607 203.519C27.8289 208.685 20.4565 219.555 20.322 231.798C20.2682 237.34 21.7211 242.695 24.4387 247.43C24.4656 247.511 24.4656 247.592 24.5194 247.699C24.6001 247.861 24.7078 248.022 24.8154 248.13C26.5643 251.009 28.7707 253.646 31.4075 255.906C28.5285 272.992 25.8917 292.418 24.4118 303.8C23.5508 303.854 22.34 304.096 21.0216 305.011C18.5461 306.733 16.9048 310.042 16.1245 314.805C14.5909 315.585 13.1379 316.715 11.8464 318.195C9.10192 321.316 7.4068 325.621 7.03011 330.303C7.0032 330.787 7.03011 331.245 7.03011 331.729C7.0032 331.836 6.94939 331.971 6.94939 332.106V389.417C7.0032 390.197 6.94939 392.054 6.46507 392.888C5.41571 394.663 2.67123 399.399 2.85958 404.484C2.91339 406.206 2.9672 407.471 2.99411 408.601C3.07483 411.077 3.12864 413.095 3.39771 418.476C1.91784 418.96 0.84158 419.471 0.411074 419.983C0.00747406 420.44 -0.0194326 420.924 0.00747406 421.22C0.00747406 421.22 0.00747406 421.22 0.00747406 421.247L0.0612873 427.328C0.0343807 427.516 0.00747406 427.678 0.0343807 427.893C0.142007 428.943 0.249634 430.342 10.6356 430.342C11.093 430.342 11.6042 430.342 12.0886 430.342L13.1917 452.055C13.1917 452.055 13.2455 452.298 13.2994 452.432C13.2994 452.755 13.2994 453.105 13.2994 453.454C13.6222 457.006 15.0214 464.917 16.9856 468.092C17.147 468.361 17.3892 468.549 17.712 468.657C17.712 468.657 17.8197 468.684 17.9004 468.711C17.8197 468.953 17.7928 469.195 17.8466 469.437C17.9542 469.868 20.5372 479.742 27.2639 480.388C28.8245 480.549 29.9815 480.603 30.8694 480.603C31.6766 480.603 32.2147 480.523 32.6183 480.388C33.9367 481.007 35.3628 481.303 36.8696 481.303C37.7844 481.303 38.7261 481.195 39.7217 480.98C39.91 480.926 40.0715 480.845 40.206 480.738C41.067 481.222 42.0356 481.518 43.085 481.518H43.7308C49.8924 480.819 55.758 475.141 55.8926 474.98C56.1078 474.818 60.7088 471.024 59.5788 466.531C61.0855 465.697 62.2694 464.567 62.673 463.302C63.3726 461.069 62.0273 455.661 61.7582 454.585C61.6775 454.235 61.3815 453.993 61.0855 453.831L61.0048 452.001H61.0317C61.3546 451.786 61.5699 451.41 61.5968 451.006C62.0542 442.261 60.09 434.862 56.1885 430.745C54.7894 429.265 53.175 428.324 51.5875 427.92C51.3992 427.463 51.1301 426.925 50.8341 426.333C57.8029 424.853 58.6908 423.75 58.6639 422.593C58.6639 422.512 58.7178 422.404 58.7178 422.323V415.974C58.7178 415.731 58.637 415.543 58.5294 415.355C58.3142 414.601 57.5608 414.036 55.5159 413.686C55.4082 412.503 55.1661 409.489 54.7625 404.484C54.6818 403.489 54.6279 402.52 54.601 401.578C54.4127 397.731 54.2513 394.394 52.1525 391.273C50 388.071 49.6771 384.654 49.6771 384.654L46.1793 330.41C46.0716 326.536 45.0223 322.957 43.1657 320.024C43.1388 319.971 43.0581 319.917 43.0312 319.863C44.3227 311.872 48.0089 289.136 51.4799 271.216C54.5741 272.561 57.8567 273.503 60.4129 273.503C62.0542 273.503 63.3457 273.099 64.1798 272.238C64.3951 272.131 64.6103 271.996 64.7448 271.781C64.7717 271.727 64.7987 271.673 64.8256 271.646L73.8124 279.557L78.7363 289.028L74.2967 291.342C74.1083 291.423 73.9738 291.584 73.8662 291.719C73.5702 291.907 73.2473 292.23 73.0859 292.822C72.5209 294.894 74.3774 299.333 76.3416 302.804C77.095 304.15 81.0234 310.849 83.7947 310.849C83.9831 310.849 84.1445 310.769 84.3329 310.715C84.3329 310.715 84.3329 310.715 84.3598 310.715L84.9517 310.58L88.8532 308.562L95.7951 321.908L95.9296 322.096C95.9296 322.096 97.7593 324.437 100.638 325.54C101.688 325.944 104.755 327.101 108.899 328.608C108.899 328.661 108.872 328.715 108.899 328.769L109.41 341.335C102.549 342.357 100.854 343.514 100.692 344.913C100.611 345.075 100.531 345.236 100.531 345.451L99.6158 360.896C86.0011 362.322 78.0905 370.34 77.7677 370.69C77.7677 370.69 77.7677 370.743 77.7407 370.77C77.5793 370.932 77.4717 371.147 77.4448 371.389C77.4448 371.389 77.4448 371.416 77.4448 371.443L77.1488 374.941L74.3505 374.268C74.3505 374.268 74.3236 374.268 74.2967 374.268C74.1891 374.268 74.1084 374.188 74.0276 374.188C71.0141 374.188 69.4804 379.596 69.2652 384.95C69.0768 390.385 70.2338 395.928 73.3012 396.036H73.355L75.373 396.305L74.6734 404.78C74.6196 405.749 74.3505 414.44 78.1174 417.911C78.1174 417.911 78.1713 417.911 78.1982 417.965C77.9291 419.337 77.8484 420.279 77.8484 420.305L75.4537 445.006C75.4537 445.006 75.4537 445.086 75.4537 445.113C75.4537 445.221 75.3999 445.302 75.3999 445.409L75.5075 446.001L79.0054 454.046L71.041 547.412C71.041 547.574 71.041 547.735 71.0948 547.897C70.9065 548.004 70.7181 548.139 70.5298 548.273C70.3145 548.435 70.0993 548.65 69.9109 548.865C68.6463 549.027 62.6461 549.942 59.1752 553.87C59.1214 553.87 59.0406 553.87 58.9868 553.897C56.3769 554.919 54.5741 558.094 53.5248 560.651C53.2557 560.597 52.9328 560.597 52.6638 560.731C49.9193 562.13 48.3587 568.453 47.8744 573.431C47.2824 579.593 47.9551 585.082 49.6233 587.423C49.6502 587.476 49.704 587.476 49.7309 587.53L36.0086 710.224C35.9547 710.79 34.448 724.108 38.5916 730.028C38.8068 730.458 39.5333 731.884 40.8248 733.391C40.771 733.526 40.7172 733.633 40.7172 733.795C40.6903 734.306 40.0176 745.795 39.9369 748.19C39.91 748.513 39.8831 748.836 39.8831 749.158L38.5647 756.396C38.484 756.612 38.4032 756.827 38.3225 757.069C36.5198 758.118 35.0399 759.464 33.56 761.186C26.5105 769.338 25.4073 784.11 25.3804 784.729C25.3804 784.998 25.4612 785.24 25.5957 785.455V788.604L25.6495 788.926C27.3446 795.142 41.928 798.801 55.4621 799.232C56.4845 799.259 57.4801 799.285 58.5025 799.285C72.0634 799.285 85.6782 796.487 85.8935 789.949C85.8935 789.787 86.0549 787.447 86.1356 786.209V785.778L86.1894 785.563V785.455V785.294V785.24C86.2163 785.16 86.2701 785.079 86.2701 784.998C86.324 784.783 87.1312 779.832 86.8621 771.599C86.8621 771.518 86.9159 771.464 86.889 771.383C86.889 771.303 86.889 771.195 86.889 771.114C86.9428 771.114 87.0235 771.168 87.0773 771.168H87.4271C89.5259 771.168 91.221 768.935 91.4093 768.666C91.5708 768.477 91.6515 768.235 91.6515 767.966L92.7815 742.324L93.1582 741.113C100.046 733.257 99.6697 718.835 99.4813 715.417L106.934 588.176C108.118 585.593 108.872 581.934 109.195 578.57C109.787 572.436 109.168 565.521 106.531 563.691C106.612 563.503 106.638 563.314 106.638 563.099C106.585 562.615 106.343 560.085 105.455 557.556C105.455 557.475 105.428 557.368 105.374 557.287C105.374 557.287 105.347 557.233 105.32 557.233C104.62 555.35 103.544 553.52 101.957 552.659C101.15 552.229 99.9656 551.717 98.5934 551.26L107.849 456.253L112.531 448.638C112.531 448.638 112.531 448.611 112.531 448.584C112.585 448.504 112.585 448.423 112.612 448.342C112.612 448.261 112.666 448.181 112.666 448.1C112.666 448.1 112.666 448.073 112.666 448.046C112.666 448.046 112.666 448.046 112.666 448.019C112.666 447.939 112.719 447.885 112.719 447.804C112.719 447.723 113.177 441.831 113.527 435.4C117.589 438.494 122.271 441.185 125.365 441.454C125.5 441.508 125.608 441.562 125.769 441.562C126.307 441.589 136.478 442.288 144.523 442.288C146.837 442.288 148.99 442.234 150.685 442.073C151.061 442.046 151.411 441.831 151.626 441.508C151.626 441.481 152.084 440.835 153.079 439.059L152.326 446.486C152.326 446.486 152.326 446.566 152.326 446.62C152.326 446.728 152.272 446.835 152.272 446.943L152.38 447.508L155.878 455.553L148.075 545.664C148.075 545.664 148.075 545.69 148.075 545.717C148.075 545.771 148.075 545.879 148.075 546.04L147.833 548.839C137.07 550.13 130.801 558.875 130.72 558.982C130.639 559.09 130.585 559.224 130.558 559.359C127.357 563.234 125.392 568.319 125.392 573.915L117.482 712.673C117.482 712.888 117.778 718.135 118.746 720.826C119.634 723.355 121.06 725.588 122.756 727.31C121.706 727.364 120.63 727.579 119.796 728.198C119.016 728.736 118.128 729.839 118.155 731.857C118.208 735.759 117.885 761.697 117.885 761.966C117.885 762.208 117.939 762.531 118.047 762.854C117.993 762.962 117.939 763.069 117.912 763.204C117.859 763.5 117.482 766.029 118.424 767.939C118.693 768.45 119.446 769.984 147.16 779.267L147.563 779.321L148.075 779.213C148.075 779.213 150.765 778.056 155.555 777.491C156.227 778.271 157.035 778.836 157.923 779.159C157.923 779.159 157.923 779.159 157.949 779.159L171.887 784.971H171.914C171.914 784.971 171.968 784.998 171.995 785.025L172.371 785.079L172.775 785.025L177.08 783.626C177.08 783.922 177.08 784.191 177.08 784.352C176.999 784.487 176.946 784.675 176.946 784.837C176.811 786.586 177.107 787.662 177.134 787.769C177.268 788.2 177.591 788.523 178.022 788.657C189.43 791.644 198.552 792.774 205.843 792.774C226.481 792.774 232.346 783.868 232.669 783.357C232.831 783.115 232.884 782.846 232.857 782.55C232.804 781.985 232.508 781.312 232.185 780.585C232.104 780.424 232.023 780.209 231.943 779.993C231.997 779.94 232.023 779.859 232.023 779.859C232.158 779.617 232.212 779.375 232.185 779.106C230.786 765.948 220.561 757.311 214.588 753.329C206.57 747.974 199.978 746.414 199.709 746.333H199.09C196.964 746.898 195.054 747.679 193.332 748.62C193.063 743.723 191.421 740.521 188.65 739.499C188.65 739.499 188.65 739.499 188.623 739.472L177.403 733.929C177.403 733.66 177.349 733.391 177.188 733.149C176.542 732.207 176.488 732.153 179.475 729.678L179.69 729.517C183.753 726.099 184.318 724.7 184.345 723.839C184.345 723.678 184.291 723.57 184.264 723.436C184.318 723.301 184.345 723.167 184.372 723.005L187.412 595.548C187.95 594.876 188.354 594.122 188.569 593.261C189.592 589.091 192.794 561.807 185.421 556.48C183.134 554.839 180.874 554.005 178.721 554.005C178.641 554.005 178.587 554.005 178.506 554.005C178.049 553.682 176.73 552.794 175.439 552.094L184.695 457.706L189.376 450.091C189.376 450.091 189.376 450.064 189.376 450.037C189.43 449.957 189.43 449.876 189.457 449.795C189.457 449.714 189.511 449.661 189.511 449.58C189.511 449.58 189.511 449.553 189.511 449.526C189.511 449.526 189.511 449.526 189.511 449.499C189.511 449.418 189.565 449.365 189.565 449.284C189.565 449.176 190.48 437.122 190.749 428.754V427.92C190.829 426.144 190.883 424.019 190.802 421.758C190.802 421.758 190.802 421.758 190.829 421.758C196.345 420.655 196.856 414.144 196.856 413.848C196.856 413.794 196.856 413.444 196.776 412.933C196.776 412.879 196.83 412.825 196.83 412.745C197.529 407.713 197.96 402.789 198.256 398.188C199.117 397.838 200.085 396.951 200.866 394.798C201.565 392.861 202.023 390.305 202.13 387.614C202.318 382.475 201.269 377.309 198.578 376.663C198.525 374.806 198.444 373.703 198.444 373.676C198.444 373.676 198.444 373.676 198.444 373.649C198.444 373.434 198.336 373.246 198.229 373.084C198.229 373.057 198.229 373.031 198.202 373.004C197.96 372.681 191.986 365.201 176.676 364.044C176.676 364.044 176.676 364.044 176.65 364.044L175.842 348.922C175.842 348.761 175.789 348.599 175.708 348.438C175.466 346.608 173.017 345.048 168.712 344.025L169.196 332.186C169.196 332.186 169.196 332.106 169.196 332.079L176.946 323.845L177.268 323.226L179.529 312.114C179.69 311.549 179.959 310.365 180.228 308.67L187.627 272.292C187.87 272.211 189.565 271.619 192.067 270.355L198.578 301.782C194.004 304.661 195.161 311.414 195.323 312.275C192.282 315.504 190.91 321.504 192.067 328.15C192.282 329.415 192.605 330.599 193.009 331.756C193.009 331.971 193.009 332.186 193.063 332.375L212.704 381.56C212.704 381.56 214.211 385.165 214.4 389.444L214.453 390.708C214.588 394.475 214.669 396.547 217.386 403.3C219.512 408.628 221.745 414.009 222.176 415.112C219.781 416.781 219.323 417.776 219.646 418.718V418.772L221.611 424.288C221.53 424.637 221.557 424.96 221.691 425.256C221.906 425.768 222.149 426.386 223.817 426.386C225.485 426.386 228.337 425.821 233.719 424.099L233.88 424.046C233.934 424.046 233.961 424.019 234.014 423.992C234.23 424.153 234.499 424.261 234.768 424.261L235.118 424.18C234.391 427.947 233.907 433.893 236.194 439.355C239.611 447.589 241.468 452.782 241.495 452.863C241.602 453.105 243.862 458.997 247.683 461.069C247.683 461.257 247.656 461.446 247.656 461.607C247.791 468.791 251.45 475.06 256.966 478.827C252.849 479.446 252.392 480.442 252.365 481.384C252.365 481.545 252.365 481.733 252.446 481.922L252.311 487.33C252.23 487.491 252.176 487.653 252.176 487.841C252.15 489.294 253.629 490.128 257.477 490.801C258.419 490.962 259.495 491.097 260.598 491.231L248.167 749.831C248.167 750.315 248.329 751.015 248.786 751.715C248.41 752.683 247.387 755.051 246.688 755.966C246.499 756.208 246.418 756.504 246.418 756.827L247.36 773.805C247.387 774.451 247.898 774.962 248.517 775.016L255.378 775.554H255.486C256.078 775.554 256.616 775.123 256.724 774.531L259.926 757.903C259.979 757.634 259.926 757.365 259.818 757.123C258.984 755.374 258.284 753.383 258.338 752.845C258.338 752.683 258.338 752.522 258.338 752.387C258.553 752.091 258.634 751.822 258.661 751.741L258.715 751.445L275.424 491.689C276.554 491.635 277.63 491.527 278.599 491.42C281.801 491.043 283.388 490.451 283.872 489.456C284.168 489.24 284.411 488.891 284.411 488.487L284.68 482.541C284.68 482.029 284.411 481.572 283.98 481.357C283.55 480.657 282.366 480.038 279.836 479.5C285.299 476.217 289.146 470.54 290.007 463.975C292.375 467.096 294.608 467.85 295.927 467.984H296.438C297.541 468.011 298.483 467.607 299.129 466.854C300.016 465.805 300.232 464.217 299.747 462.334L299.586 462.549ZM75.373 385.192C75.1846 390.385 73.7586 393.157 73.1666 393.506C72.6016 393.103 71.3908 390.251 71.5791 385.058C71.7675 379.865 73.1935 377.12 73.6778 376.771H73.8124C74.4043 377.282 75.5613 380.107 75.373 385.192ZM198.498 380.376C199.036 381.694 199.574 384.143 199.439 387.722C199.332 390.654 198.821 392.78 198.309 394.152C198.552 388.69 198.552 383.928 198.498 380.376ZM283.765 437.23C284.518 438.36 284.061 442.1 281.747 444.683C280.993 444.091 280.213 443.58 279.379 443.095C276.984 440.566 275.37 438.118 274.455 436.503C274.509 435.938 274.563 435.212 274.617 434.189C275.02 433.301 276.043 430.449 274.617 426.978C274.132 425.794 273.433 424.099 272.706 422.323C277.657 428.943 283.119 436.288 283.765 437.257V437.23ZM271.684 398L272.975 401.955C271.576 402.063 269.558 402.493 266.518 403.381L264.796 399.507C268.32 398.457 270.688 397.973 271.657 398.027L271.684 398ZM254.706 376.878C256.778 379.273 258.446 382.798 259.872 385.757C260.248 386.591 260.625 387.372 261.002 388.098C262.562 391.246 264.365 394.959 265.226 396.762C259.038 398.484 250.724 401.632 245.127 403.946C242.302 405.103 239.557 406.287 236.974 407.471C236.382 406.233 234.768 402.951 232.831 398.78C229.925 392.592 228.714 386.699 230.059 385.381C232.131 383.363 247.118 376.582 254.706 376.932V376.878ZM264.096 404.108C262.105 404.727 260.006 405.426 257.719 406.26L255.997 402.413C258.365 401.552 260.491 400.825 262.401 400.233L264.123 404.108H264.096ZM255.325 407.148C253.253 407.928 251.127 408.736 248.921 409.624L247.145 405.83C249.405 404.915 251.585 404.054 253.603 403.3L255.325 407.148ZM246.553 410.592C244.158 411.588 241.817 412.583 239.611 413.579L237.916 409.785C240.015 408.816 242.329 407.821 244.804 406.798L246.553 410.592ZM217.548 309.262L217.655 309.8C218.22 312.544 219.915 320.912 216.983 322.123C216.902 322.15 216.821 322.177 216.74 322.204C217.386 319.648 216.633 315.719 216.337 314.347L208.803 278.911C209.583 278.561 210.444 278.292 211.386 278.05L217.548 309.289V309.262ZM210.902 275.548C209.96 275.79 209.099 276.059 208.292 276.382L205.009 260.964C205.843 260.13 206.677 259.269 207.511 258.328L210.902 275.548ZM200.058 210.595C200.058 210.595 200.085 210.595 200.112 210.595C207.458 212.29 213.054 217.941 214.696 224.91C214.749 225.152 214.803 225.367 214.857 225.609C215.045 226.524 215.18 227.439 215.207 228.38C215.422 233.466 213.565 238.336 209.987 242.076C206.408 245.843 201.538 248.022 196.264 248.238C195 248.291 193.708 248.238 192.471 248.022L200.085 210.568L200.058 210.595ZM161.071 344.752L160.559 352.393C156.954 352.797 152.676 353.012 147.833 352.958C142.989 352.797 138.173 352.07 133.707 351.075L133.518 341.388L154.963 349.837L155.42 349.918C155.743 349.918 156.093 349.783 156.335 349.541L161.071 344.725V344.752ZM130.854 363.263C130.155 363.263 129.59 363.828 129.59 364.528V367.864C125.339 367.488 121.518 367.003 118.181 366.492C118.181 366.492 118.181 366.465 118.181 366.438L118.827 352.689C124.72 353.658 131.312 354.411 137.473 354.949C140.756 355.245 143.985 355.38 147.133 355.434C147.375 355.434 147.617 355.461 147.833 355.487H147.886C147.886 355.487 147.967 355.487 147.994 355.487C148.451 355.487 148.963 355.514 149.42 355.514C154.317 355.514 158.918 355.218 162.846 354.707L162.981 368.349C156.819 368.86 148.317 369.048 137.958 368.483C135.94 368.376 134.003 368.241 132.119 368.08V364.528C132.119 363.828 131.554 363.263 130.854 363.263ZM94.7995 187.563C95.1762 187.429 95.526 187.321 95.9296 187.16C99.3199 185.787 102.307 183.823 105.024 181.482C105.105 181.59 105.186 181.671 105.32 181.751C107.499 183.097 109.948 184.442 112.558 185.76C107.042 188.908 105.912 197.223 105.697 201.232C99.3737 196.442 96.5216 191.68 94.8265 187.536L94.7995 187.563ZM97.9745 266.292C97.8938 266.453 97.8669 266.615 97.84 266.803C97.1404 280.768 90.36 289.997 86.7545 293.952C85.8666 292.607 84.9786 291.396 84.1176 290.454C83.7678 290.05 83.3642 289.647 82.9068 289.27C85.463 286.31 93.2121 276.113 93.9385 260.534C95.257 262.444 96.6023 264.355 97.9476 266.319L97.9745 266.292ZM118.316 166.818C119.877 167.571 121.652 168.352 123.59 169.078C123.59 169.213 123.59 169.347 123.643 169.482L123.805 169.939C124.397 171.581 125.554 174.89 127.249 177.796C121.868 176.316 117.859 174.594 114.953 173.007C116.217 171.231 117.428 169.132 118.316 166.818ZM117.832 163.697C119.042 161.114 120.119 158.477 121.087 155.786C122.433 159.204 125.016 164.316 129.321 168.352C124.8 166.926 120.63 165.204 117.859 163.67L117.832 163.697ZM129.536 180.998C134.406 186.864 136.989 190.361 137.689 193.563C137.581 193.483 137.473 193.402 137.393 193.321L137.204 193.187C136.532 192.622 135.886 192.326 135.267 192.164C135.213 192.137 135.16 192.083 135.079 192.057C126.711 189.554 117.643 185.787 110.459 181.805L110.378 178.28C110.917 177.769 112.074 176.612 113.392 175.025C116.971 177.043 122.19 179.249 129.536 180.998ZM115.329 187.321C115.329 187.321 115.437 187.267 115.518 187.24C120.361 189.527 125.635 191.653 130.801 193.348C128.352 195.527 126.845 199.644 126.253 201.635C126.119 202.066 125.984 202.496 125.877 202.927C125.877 202.927 125.877 202.954 125.877 202.981C125.877 202.981 125.877 202.981 125.877 203.008C125.016 206.075 124.397 209.061 124.047 210.784C121.356 209.788 118.935 208.766 116.728 207.716L108.226 202.927C108.226 200.586 108.63 189.124 115.383 187.294L115.329 187.321ZM127.814 327.666C127.114 327.666 126.549 328.231 126.549 328.931V332.455C124.047 331.54 121.572 330.626 119.177 329.765L118.155 295.297C132.334 315.693 144.98 333.854 149.958 341.039C146.164 339.666 137.823 336.599 129.079 333.397V328.957C129.079 328.258 128.514 327.693 127.814 327.693V327.666ZM118.72 335.63C118.72 335.63 118.827 335.63 118.854 335.63L130.962 340.393L131.15 350.483C121.841 348.196 114.468 344.994 112.289 344.025C112.531 341.873 113.688 335.603 118.72 335.603V335.63ZM151.169 311.118C151.061 309.585 151.815 308.266 152.864 308.212C153.913 308.132 154.828 309.316 154.936 310.876C155.044 312.41 154.29 313.728 153.241 313.782C152.191 313.863 151.25 312.679 151.169 311.118ZM148.909 193.24L149.555 192.81C152.407 190.926 152.918 188.693 152.864 187.133C152.864 186.783 152.81 186.406 152.73 186.056C154.048 187.59 155.124 189.285 155.878 191.169C155.878 191.33 155.958 191.491 156.039 191.653C156.658 193.402 157.035 195.312 157.035 197.465C157.035 202.981 154.425 206.64 152.73 208.443C152.218 206.532 151.411 203.357 150.442 199.187C149.797 196.362 148.182 195.178 146.864 194.613C147.429 194.236 148.129 193.779 148.936 193.24H148.909ZM146.864 199.321C146.864 199.321 148.344 200.774 148.774 203.357C148.774 203.519 148.855 203.653 148.936 203.788C150.066 208.362 150.819 211.08 150.846 211.133C150.954 211.537 151.25 211.86 151.653 211.994L152.084 212.075C152.353 212.075 152.595 211.994 152.81 211.833C152.864 211.779 153.268 211.483 153.806 210.999C158.649 249.529 156.174 280.283 154.936 291.261C153.913 295.674 152.73 298.392 151.922 299.844C151.088 298.957 149.608 297.208 147.563 294.302C128.271 257.87 123.428 222.192 122.486 213.393C122.648 213.313 122.782 213.232 122.917 213.097C123.482 213.313 124.02 213.528 124.612 213.743L125.043 213.824L125.688 213.663C126.011 213.474 126.227 213.151 126.307 212.775C126.307 212.721 127.141 208.174 128.406 203.626C129.617 200.155 131.204 198.864 131.285 198.81C132.469 197.815 133.68 197.384 134.837 197.492C136.72 197.68 138.012 199.267 138.039 199.321C138.308 199.671 138.738 199.806 139.142 199.779C139.222 199.779 139.303 199.833 139.411 199.833C139.787 199.833 140.11 199.671 140.326 199.429C140.46 199.348 140.568 199.267 140.675 199.16C140.783 199.052 143.178 196.227 146.945 199.375L146.864 199.321ZM139.976 170.881C138.873 170.72 137.769 170.531 136.612 170.289C136.612 170.289 136.612 170.289 136.586 170.289C126.845 165.903 123.105 154.253 122.433 151.885C123.993 147.015 125.204 142.172 126.173 137.759L126.496 137.867C133.868 140.934 141.59 142.333 148.72 142.817L144.954 171.5C143.366 171.338 141.725 171.15 139.976 170.908V170.881ZM159.51 100.924C158.461 100.439 157.304 100.197 156.12 100.197C155.151 100.197 154.183 100.386 153.214 100.682C154.882 99.686 156.631 99.0941 158.245 99.0672H158.514C159.537 99.0941 160.506 99.3362 161.34 99.8206C163.089 100.789 164.246 102.269 164.757 104.179C165.187 105.74 165.187 107.57 164.811 109.534C164.73 108.296 164.488 107.112 164.084 106.036C163.196 103.641 161.609 101.865 159.51 100.924ZM160.855 116.987C158.73 121.534 154.694 124.709 151.034 124.709C150.2 124.709 149.42 124.548 148.667 124.225C147.214 123.579 146.084 122.288 145.438 120.539C144.362 117.687 144.684 113.92 146.272 110.476C148.398 105.928 152.407 102.753 156.066 102.753C156.9 102.753 157.68 102.915 158.434 103.238C159.887 103.883 161.017 105.175 161.663 106.924C162.739 109.776 162.416 113.543 160.828 116.96L160.855 116.987ZM152.945 97.964C150.2 99.3362 147.617 101.65 145.519 104.664C145.25 105.067 145.007 105.444 144.738 105.901C144.658 105.848 144.604 105.794 144.496 105.74L141.267 104.449C141.348 104.206 141.913 102.673 144.55 100.278C147.913 97.2106 153.214 97.8833 153.214 97.8833L152.945 97.964ZM145.599 129.633C145.868 129.283 146.891 128.126 148.963 128.261C149.097 128.261 149.232 128.261 149.366 128.207C149.689 128.234 150.012 128.342 150.335 128.342C155.151 128.342 160.506 124.467 163.977 118.494C165.107 116.53 165.995 114.538 166.586 112.628C167.017 111.713 167.824 110.476 168.82 110.583C168.847 110.583 168.9 110.583 168.927 110.583C169.385 110.583 169.896 110.61 170.488 110.61C170.542 110.61 170.622 110.61 170.676 110.61C170.38 114.269 169.654 127.077 172.102 138.97C165.86 140.046 153.16 141.58 139.895 139.131C142.72 136.979 144.55 132.862 145.572 129.66L145.599 129.633ZM176.031 138.136C175.815 138.189 175.627 138.243 175.385 138.297C175.17 138.351 174.901 138.405 174.605 138.458C172.156 126.62 172.99 113.489 173.232 110.476C173.555 110.476 173.932 110.422 174.255 110.395C174.013 113.247 173.017 127.75 175.977 138.163L176.031 138.136ZM174.605 107.812C170.676 108.215 167.824 107.919 167.528 107.893C167.582 107.085 167.582 106.305 167.528 105.552L174.954 105.875C174.766 106.736 174.658 107.408 174.605 107.812ZM180.874 138.001C181.466 139.535 181.277 141.257 181.277 141.257C179.744 150.943 177.807 160.872 177.161 163.805C176.676 166.038 176.004 166.98 175.842 167.195C173.744 168.917 167.824 173.437 147.51 171.715L151.303 142.925C152.541 142.979 153.779 143.006 154.963 143.006C164.649 143.006 172.587 141.526 175.977 140.772C178.668 140.181 180.228 139.266 180.901 138.001H180.874ZM176.65 124.951L177.78 125.167L177.268 131.436C176.972 129.283 176.784 127.077 176.65 124.924V124.951ZM187.17 114.781C185.556 118.305 182.677 120.888 180.336 120.888C179.932 120.888 179.555 120.808 179.233 120.646C177.807 120.001 177.376 118.225 177.268 117.229C177.161 116.314 177.215 115.319 177.376 114.323C177.726 112.709 178.345 111.041 179.233 109.372C180.901 106.601 183.295 104.718 185.287 104.718C185.69 104.718 186.067 104.798 186.39 104.96C188.758 106.036 189.107 110.556 187.17 114.808V114.781ZM177.188 107.704C177.457 105.955 178.479 101.22 181.977 99.1479C182.488 99.1479 182.973 99.1479 183.43 99.3093L184.802 99.7936C182.058 101.166 179.313 103.91 177.268 107.597C177.268 107.65 177.215 107.677 177.215 107.731L177.188 107.704ZM190.937 109.13C190.856 106.09 189.672 103.614 187.439 102.592C186.874 102.323 186.255 102.215 185.609 102.161C186.578 101.623 187.547 101.3 188.408 101.3C188.865 101.3 189.296 101.408 189.672 101.569C190.533 102 191.072 102.646 191.367 103.587C191.798 104.96 191.61 106.897 190.91 109.103L190.937 109.13ZM174.416 12.6431C177.807 33.3881 180.47 78.376 180.497 78.8334C180.659 82.116 181.062 84.5645 181.681 86.2327C180.712 86.2327 179.717 86.2058 178.721 86.1789C178.076 83.7573 176.757 77.0845 176.138 60.8328C175.277 38.6349 171.86 13.4503 171.43 12.2933C171.187 11.6475 167.044 7.82677 157.788 5.00157C170.138 7.77296 173.797 11.8628 174.416 12.67V12.6431ZM168.551 88.1969C189.619 89.7306 206.866 87.7395 210.364 87.2821C210.686 87.8471 210.606 88.7888 210.471 89.5422C195.834 92.8786 170.353 92.1253 139.976 87.5242C139.976 87.5242 139.976 87.5242 139.976 87.4973C139.976 87.4973 139.572 86.9861 139.276 85.5062C148.236 86.4749 158.057 87.4435 168.578 88.1969H168.551ZM140.406 107.893C140.406 107.462 140.299 107.058 140.11 106.682L143.554 108.054C142.909 109.453 142.344 110.879 141.994 112.305L138.092 110.745C139.33 110.529 140.379 109.292 140.379 107.893H140.406ZM142.182 121.776C140.756 120.485 139.814 119.22 139.249 118.386C138.415 116.691 138.2 114.808 138.2 113.516L141.59 114.861C141.321 117.337 141.536 119.731 142.182 121.776ZM137.151 119.866C137.151 119.866 137.258 119.974 137.312 120.027C138.415 121.642 140.541 124.198 144.012 126.162C143.339 128.934 141.509 135.014 138.173 137.248C137.124 137.947 136.047 138.163 134.89 137.92C134.89 137.92 134.89 137.92 134.864 137.92C132.388 137.248 129.913 136.44 127.491 135.445L126.765 135.176C127.41 132.109 127.922 129.256 128.379 126.808C128.863 124.117 129.267 121.992 129.617 120.566C130.263 117.983 131.07 116.153 131.823 114.888C133.707 117.175 136.074 118.332 136.451 118.521C136.505 118.628 136.72 119.032 137.124 119.678C137.151 119.731 137.178 119.812 137.204 119.866H137.151ZM113.957 4.94776C113.957 4.94776 114.145 4.78632 114.199 4.67869C116.567 4.14056 119.123 3.71005 121.787 3.33336C118.908 8.90304 120.28 19.6388 121.706 30.9665C122.11 34.0876 122.513 37.3164 122.809 40.2762C124.101 53.5142 126.522 76.5463 127.034 81.5779C125.123 81.3626 123.24 81.1205 121.437 80.9052C120.657 80.8245 119.93 80.7168 119.177 80.6361L112.692 11.6475C112.45 10.3022 112.154 6.21237 113.93 4.94776H113.957ZM100.289 37.1819H100.477C101.822 37.1819 103.759 39.8726 104.405 43.774C104.594 44.9579 104.647 46.0611 104.594 47.0297L98.6472 39.5766C99.0508 38.1775 99.6966 37.2895 100.315 37.155L100.289 37.1819ZM103.867 50.2585C103.49 51.1195 103.006 51.6577 102.522 51.7384C101.15 52.0344 99.0777 49.2361 98.405 45.1463C98.2974 44.4736 98.2436 43.8278 98.2167 43.209L103.84 50.2585H103.867ZM88.8532 80.6361C89.9295 80.6361 91.0326 80.6092 92.1896 80.6361C99.2392 80.8245 108.899 81.9815 121.141 83.4344C125.904 83.9995 131.07 84.6183 136.612 85.2372C136.72 85.9636 136.855 86.5825 137.016 87.0937C136.505 87.013 135.994 86.9323 135.482 86.8516C115.195 83.5689 99.3199 81.4702 88.8263 80.663L88.8532 80.6361ZM113.769 127.4L107.365 109.426C107.365 109.426 107.177 108.996 106.961 108.538C105.804 104.233 104.89 96.8339 113.231 99.2017C113.231 99.2017 117.616 100.305 122.352 101.408C122.756 101.677 123.321 101.839 123.886 102C127.653 103.022 129.509 106.547 130.047 107.812C127.949 109.588 125.608 112.682 124.451 118.09C124.182 119.328 123.886 121.023 123.536 123.176C123.078 125.812 122.513 129.095 121.814 132.7C118.962 131.167 116.244 129.418 113.796 127.427L113.769 127.4ZM121.249 135.31C120.711 137.813 120.092 140.45 119.365 143.14L115.275 131.651C117.186 132.97 119.15 134.207 121.249 135.31ZM98.8086 151.858C97.0059 150.244 96.5754 148.468 96.4678 147.58L96.1987 109.507V106.87C96.1987 106.87 96.1987 106.843 96.1987 106.816C96.1987 106.816 96.1987 106.709 96.1987 106.574C96.1987 106.574 96.3063 105.713 96.979 105.175C97.5709 104.691 98.4589 104.529 99.6697 104.691C101.526 104.933 103.114 106.87 104.082 108.511C104.54 109.372 104.97 110.341 105.374 111.39C105.374 111.417 105.428 111.444 105.428 111.471L118.181 147.284C118.181 147.284 118.181 147.311 118.208 147.338C116.782 152.073 115.033 156.863 112.854 161.383C105.105 157.212 100.181 153.069 98.8355 151.858H98.8086ZM97.1404 173.841C97.2212 174.352 97.3826 174.917 97.7593 175.563C98.3512 176.612 98.8625 177.312 100.127 178.253C98.2436 179.733 96.1987 180.998 93.9924 181.967C93.9116 178.092 95.1493 175.536 97.1404 173.841ZM70.449 179.141C70.3145 178.872 70.2338 178.576 70.0993 178.28C72.2518 182.854 76.8797 186.783 84.1176 186.783C86.5392 186.783 89.2837 186.352 92.2972 185.33C92.6201 185.222 92.943 185.088 93.2659 184.953H93.3197C93.3197 184.953 93.4004 184.899 93.4273 184.899C117.105 175.966 123.347 139.373 126.038 123.579C126.388 121.453 126.684 119.785 126.926 118.601C128.917 109.292 134.568 108.081 134.864 108.027C134.864 108.027 135.402 107.919 136.074 107.785C136.451 107.893 136.586 108.162 136.639 108.377C134.568 108.78 133.034 109.83 132.657 110.126C131.931 110.556 128.89 112.763 127.114 119.947C126.738 121.453 126.334 123.606 125.85 126.351C122.89 142.468 116.755 175.966 95.0148 184.765C83.8486 189.285 74.216 187.079 70.449 179.141ZM23.8737 239.601C23.1741 237.071 22.7705 234.461 22.7974 231.798C22.9319 218.586 32.2416 207.07 45.4797 203.788C45.6949 203.734 45.8564 203.626 46.0178 203.492C46.7712 203.68 47.9282 204.03 49.2735 204.595C37.1655 209.411 29.0935 220.847 28.959 233.627C28.959 236.264 29.255 238.847 29.9007 241.376C28.7438 241.323 27.7213 241.376 26.8334 241.645C25.4881 241.161 24.5463 240.408 23.8737 239.574V239.601ZM28.2325 248.291C28.2325 248.291 28.1518 248.453 28.098 248.507C27.5868 247.78 27.1025 247.027 26.645 246.273C26.4567 245.735 26.3491 245.063 26.645 244.632C27.1025 243.959 28.5285 243.717 30.681 244.013C31.0039 244.982 31.3806 245.924 31.8111 246.865C30.1967 246.865 28.9321 247.296 28.2325 248.291ZM34.2058 282.248C35.8471 283.135 37.7037 284.535 39.5602 286.875C36.2507 304.257 34.2596 319.648 34.2327 319.863C34.1789 320.32 33.8022 323.038 34.1251 325.621C33.2641 324.33 32.6183 322.85 32.3493 322.123C32.3223 322.042 32.2685 321.989 32.2147 321.908C31.2461 319.755 29.9546 317.926 28.3671 316.527L34.1789 282.248H34.2058ZM34.6363 279.638L39.0221 253.78C40.4481 254.641 42.1702 255.825 44.0267 257.44C44.7263 258.058 45.3721 258.65 45.964 259.242C45.964 259.269 45.9371 259.296 45.9102 259.323C43.7577 266.803 41.8204 275.386 40.1522 283.727C38.2149 281.709 36.3045 280.418 34.6363 279.638ZM9.47861 330.491C9.80149 326.347 11.2814 322.581 13.676 319.863C15.9631 317.253 18.8152 315.935 21.6673 316.15C25.2459 316.419 28.3133 319.19 30.0353 323.173C30.0891 323.334 30.1698 323.549 30.3043 323.845C31.0039 325.675 31.4613 327.747 31.542 329.953C31.542 330.706 31.542 331.46 31.4882 332.213C31.0846 337.352 28.8514 341.765 25.8109 344.294C24.8423 344.913 23.9006 345.478 23.0665 345.936C21.8826 346.42 20.618 346.635 19.3264 346.554C16.4743 346.339 13.8644 344.59 12.0078 341.63C10.0706 338.563 9.20954 334.608 9.53242 330.491H9.47861ZM4.5547 427.543C4.39326 427.543 4.25872 427.516 4.12419 427.49C4.52779 427.355 5.01211 427.221 5.52333 427.086L4.5547 427.516V427.543ZM8.99429 423.723C5.92693 424.342 3.88203 424.88 2.50979 425.391V421.462C3.23627 420.978 5.49643 420.305 9.0481 419.606L9.37098 423.642C9.37098 423.642 9.10192 423.696 8.99429 423.723ZM11.8733 423.184L11.5504 419.122C13.7568 418.718 16.286 418.341 19.165 417.938L19.6224 422.001C16.851 422.35 14.2411 422.754 11.8733 423.158V423.184ZM14.6178 432.198C15.3981 429.642 16.9048 426.763 19.7569 424.853C20.4296 424.853 31.4075 424.96 34.3942 448.773C32.3492 448.423 29.9546 448.235 27.1832 448.181L26.5643 443.687C26.3222 441.912 24.5463 440.62 22.7436 440.808C21.8018 440.916 20.9947 441.373 20.4296 442.1C19.8915 442.799 19.6493 443.66 19.7569 444.521L20.2682 448.235C18.1425 448.315 16.6089 448.531 15.4788 449.015L14.6178 432.171V432.198ZM41.4168 440.163C43.085 446.001 42.8697 450.091 42.4661 452.432C42.224 452.163 41.9011 451.867 41.6051 451.598C41.6051 451.598 41.5782 451.571 41.5513 451.544C40.4481 450.575 38.9414 449.661 37.0041 449.176C35.1206 432.898 29.6317 426.467 25.2997 423.938C26.9679 423.75 28.5554 423.615 29.8469 423.669C34.5287 423.83 38.3225 429.239 41.4168 440.163ZM31.6228 416.592C34.0713 416.377 36.3583 416.216 38.484 416.108L38.9683 420.225C36.7888 420.332 34.5018 420.494 32.1609 420.682L31.6228 416.592ZM41.0401 415.974C43.5424 415.866 45.8026 415.812 47.7398 415.812L48.1973 419.956C46.1793 419.956 43.9191 419.983 41.4975 420.09L41.0132 415.974H41.0401ZM28.8514 420.978C26.5643 421.193 24.3311 421.436 22.1516 421.705L21.6942 417.642C23.9813 417.373 26.4298 417.104 29.0666 416.835C29.0666 416.835 29.0935 416.835 29.1205 416.835L29.6586 420.924C29.3895 420.924 29.1474 420.978 28.8783 421.005L28.8514 420.978ZM24.9768 450.683L25.7033 456.038L25.5688 456.576C25.4342 456.764 25.219 456.872 24.9499 456.899H24.8423C24.3849 456.899 24.0082 456.603 23.9544 456.199L23.201 450.71C23.766 450.71 24.358 450.71 25.0037 450.71L24.9768 450.683ZM22.8243 448.181L22.2862 444.199C22.2593 443.956 22.34 443.768 22.4207 443.66C22.5552 443.472 22.7705 443.364 23.1472 443.338C23.6046 443.338 23.9813 443.66 24.0351 444.037L24.6001 448.154C23.9813 448.154 23.3624 448.154 22.7974 448.154L22.8243 448.181ZM15.7479 453.212C15.6402 452.082 15.9093 451.786 16.0169 451.679C16.5551 451.087 18.2233 450.845 20.6449 450.764L21.4521 456.549C21.6673 458.19 23.1472 459.455 24.8692 459.455H25.2728C26.2145 459.32 27.0217 458.863 27.5868 458.136C28.1249 457.437 28.3671 456.576 28.2325 455.715L27.5599 450.737C35.5511 450.925 40.1253 452.378 41.0939 455.15C42.6814 459.643 43.6231 465.266 43.4886 466.397C43.4886 466.397 43.1926 467.823 33.5062 467.823H32.6183C25.1383 467.769 20.322 466.719 18.8421 466.37C17.4161 463.598 16.0976 457.033 15.7748 453.239L15.7479 453.212ZM27.3984 477.832C23.0934 477.428 20.8601 470.998 20.322 469.222C21.5597 469.464 23.201 469.706 25.219 469.894C25.219 470.056 25.219 470.19 25.219 470.352C25.2728 470.567 26.2683 474.818 29.255 477.966C28.7438 477.939 28.1518 477.886 27.3984 477.832ZM32.7259 477.617C29.4433 475.545 28.098 471.267 27.7751 470.11C29.2281 470.217 30.8156 470.271 32.5645 470.298H33.4793C33.4793 470.459 33.4793 470.594 33.5062 470.755C33.587 471.051 34.9323 475.599 37.623 478.693C35.7933 478.854 34.152 478.505 32.7259 477.617ZM49.4619 476.594C47.6322 477.724 45.4797 478.72 43.3272 478.962C39.5602 479.366 36.8158 472.989 36.0086 470.271C38.0266 470.217 39.7486 470.083 41.0939 469.868C41.1746 469.868 41.2284 469.948 41.3092 469.948H41.632C42.0356 469.814 43.9998 469.302 46.2062 468.549C49.5157 472.316 49.5695 475.599 49.4888 476.594H49.4619ZM54.0898 473.069C54.0898 473.069 53.2288 473.904 51.9104 474.899C51.6951 473.069 50.9148 470.459 48.6547 467.607C49.3004 467.338 49.9193 467.069 50.4843 466.8C50.9417 467.58 51.8028 468.145 53.5517 468.145H53.5786C54.6818 468.145 55.8926 467.93 57.0495 467.554C57.3724 470.352 54.1705 472.989 54.0629 473.069H54.0898ZM60.1438 462.522C59.9555 463.141 59.0137 463.921 57.7222 464.567C57.5877 464.567 57.4262 464.621 57.2917 464.675C57.211 464.728 57.1303 464.782 57.0495 464.863C56.0002 465.293 54.7894 465.589 53.5786 465.589C52.9059 465.589 52.6638 465.482 52.6369 465.482V465.293C52.9059 464.836 52.9059 464.217 52.5292 463.76C52.4485 463.652 52.314 463.571 52.2063 463.518C52.0718 463.195 51.8835 462.872 51.6144 462.576C51.1839 462.118 50.565 459.643 50.1884 456.899C51.5068 457.006 53.4979 457.141 55.4082 457.141C57.3186 457.141 58.5832 457.033 59.5788 456.764C60.0631 458.97 60.4398 461.58 60.1707 462.495L60.1438 462.522ZM54.2243 432.467C57.5608 435.965 59.2828 442.396 58.9868 450.118C58.1527 450.495 56.3769 451.14 53.7938 451.14C52.5292 451.14 51.2108 450.979 49.8655 450.683C49.704 447.67 48.9506 438.441 45.9909 432.736C46.0985 432.064 46.6905 430.342 49.6771 430.18H49.8655C51.2915 430.18 52.8521 430.987 54.2243 432.44V432.467ZM56.054 416.431V420.494C54.897 420.225 53.2019 420.063 50.7803 419.983L50.3229 415.812C53.3633 415.893 55.3275 416.108 56.0809 416.404L56.054 416.431ZM45.5335 362.053L47.0134 384.843C47.0134 384.843 47.1479 386.107 47.6322 387.748C46.825 387.506 45.7757 387.264 44.3765 387.049C43.7039 386.941 43.0312 387.426 42.9236 388.098C42.8159 388.798 43.3003 389.444 43.9729 389.551C46.9865 390.009 48.2242 390.681 48.278 390.708L48.843 390.87C49.139 391.488 49.4888 392.08 49.8924 392.699C51.5875 395.229 51.722 398.081 51.9104 401.713C51.9642 402.655 52.018 403.65 52.0987 404.7C52.4485 409.166 52.6907 412.018 52.7983 413.444C51.6682 413.364 50.4036 413.31 48.8161 413.31C45.7488 413.283 42.1433 413.39 38.2149 413.606C38.0535 411.05 37.5153 404.135 36.3852 399.48C35.7933 397.058 34.5287 395.229 32.5914 394.072C29.3626 392.161 24.4387 392.107 17.4968 393.91C12.25 395.282 8.94048 396.439 6.89557 397.273C7.51443 395.928 8.13328 394.825 8.56378 394.098C8.69832 393.856 8.80594 393.587 8.91357 393.318C9.50552 393.076 11.3083 392.43 16.582 390.95C18.5192 390.412 20.3489 389.955 21.9633 389.578C28.7976 387.937 33.7215 386.753 33.4255 379.676C33.291 376.125 33.3986 366.385 33.5331 356.617C40.4212 357.209 45.1837 359.308 45.2913 361.488C45.2913 361.703 45.3721 361.891 45.4797 362.053H45.5335ZM43.4886 330.518L45.2106 357.317C42.5738 355.514 38.2956 354.438 33.6139 354.061C33.6677 351.129 33.6946 348.25 33.7484 345.586C33.856 339.478 33.9367 334.662 33.9098 333.289C33.9098 333.209 33.8829 333.128 33.856 333.047C33.856 332.805 33.9098 332.59 33.9367 332.375C34.0175 331.54 34.0175 330.679 33.9906 329.845C33.9906 329.657 33.9367 329.469 33.9367 329.253C34.6632 329.872 35.4973 330.357 36.4391 330.518C36.6812 330.572 36.9234 330.572 37.1655 330.572C37.9996 330.572 38.7799 330.303 39.4526 329.792C41.1746 328.473 41.8742 325.836 42.1702 324.06C42.9236 326.025 43.4079 328.204 43.4617 330.491L43.4886 330.518ZM39.9369 322.177C39.9369 322.177 39.8562 322.365 39.8562 322.473C39.6948 324.518 39.0221 326.966 37.9458 327.8C37.892 327.854 37.8113 327.854 37.7575 327.881L37.3001 327.639C36.3045 326.428 36.3583 322.581 36.6812 320.186C36.7081 319.971 38.5109 306.06 41.5244 289.808C42.3854 291.234 43.2195 292.903 43.9998 294.84C44.0805 295.028 44.2151 295.163 44.3765 295.297C42.0356 308.831 40.2329 320.347 39.9369 322.177ZM45.103 291.073C44.1882 289.189 43.1926 287.602 42.1971 286.23C43.8115 277.835 45.7488 269.063 47.9013 261.368C48.9506 262.606 49.6771 263.682 50.0807 264.462C48.4394 272.427 46.6905 282.005 45.103 291.1V291.073ZM64.1529 267.557C64.1529 267.557 64.1529 267.557 64.1529 267.583C62.0542 263.521 55.758 258.328 50 254.48C44.8608 251.036 39.2373 248.238 34.8785 247.242C34.4211 246.381 33.9906 245.52 33.6139 244.605C37.5153 245.655 42.7352 247.834 48.5201 251.413C57.9106 257.224 63.5071 263.386 64.2067 266.507C64.3143 266.938 64.2605 267.287 64.1529 267.557ZM65.2292 249.099C57.0765 252.327 42.8159 245.359 42.6814 245.305C42.5738 245.251 42.4661 245.224 42.3316 245.224C38.8337 243.583 35.4435 242.345 32.5376 241.753C31.7842 239.143 31.4075 236.426 31.4344 233.681C31.542 221.385 39.6948 210.407 51.722 206.371C51.9104 206.317 52.0718 206.209 52.2063 206.075C53.0674 206.559 54.0091 207.151 54.9508 207.824C64.5027 216.542 69.9378 229.726 70.0185 244.148C70.0185 244.202 69.9647 244.228 69.9378 244.282C69.0499 246.65 67.5162 248.238 65.2561 249.125L65.2292 249.099ZM71.6329 274.364C69.1844 270.624 68.4041 267.261 68.162 265.162C70.9872 258.812 72.5209 251.951 72.5747 244.928C72.6285 239.601 71.9289 234.434 70.6105 229.537C70.7719 228.919 71.2293 228.65 72.2249 229.241C75.2115 233.52 78.7363 238.578 82.6108 244.148C82.7992 249.152 82.4225 253.7 81.7229 257.709L78.8977 256.04C78.3058 255.691 77.5255 255.879 77.1488 256.498C76.799 257.117 76.9874 257.87 77.6062 258.247L81.1848 260.372C79.2744 269.009 76.0994 274.741 74.6465 277.055L71.606 274.391L71.6329 274.364ZM76.3416 279.126C78.1174 276.57 84.9517 265.565 85.2208 247.888C87.2388 250.794 89.3375 253.807 91.49 256.901C91.8936 273.96 83.0144 285.288 80.835 287.79L76.3416 279.126ZM78.4403 301.54C76.6107 298.284 75.7497 295.782 75.4806 294.463C76.4761 295.378 78.1713 297.396 80.0009 300.652C81.8306 303.907 82.6916 306.41 82.9606 307.728C81.9651 306.813 80.27 304.795 78.4403 301.54ZM89.0146 305.522L85.436 307.378C84.9786 304.58 83.0414 300.894 82.2072 299.414C81.8575 298.795 80.835 297.019 79.5435 295.297L82.9337 293.468C82.9337 293.468 83.1221 293.306 83.2297 293.225C84.0638 294.302 85.0055 295.701 86.028 297.477C88.3958 301.674 89.1492 304.58 89.0684 305.414C89.0684 305.414 89.0684 305.468 89.0146 305.495V305.522ZM94.7457 300.41L90.7635 293.145C94.3959 288.463 99.1046 280.472 100.235 269.44C102.414 272.588 104.62 275.736 106.827 278.911C106.746 278.965 106.692 278.992 106.612 279.073C99.7235 286.606 96.2794 293.979 94.7188 300.41H94.7457ZM101.419 323.146C99.8311 322.527 98.6741 321.451 98.136 320.885C98.136 320.805 98.136 320.697 98.0822 320.616C97.7324 319.836 89.7411 301.54 108.307 281.01C109.006 282.032 109.733 283.055 110.432 284.05C96.8983 301.513 99.7504 317.28 101.58 323.173C101.526 323.173 101.472 323.146 101.445 323.119L101.419 323.146ZM102.979 308.266L102.898 307.943C103.544 302.239 105.616 295.486 110.459 288.382C111.213 288.275 112.612 288.248 113.849 288.974C114.414 289.808 115.006 290.616 115.571 291.45L116.648 328.285C106.531 319.89 103.033 308.401 103.006 308.293L102.979 308.266ZM109.275 350.644C111.401 351.236 113.769 351.747 116.379 352.232L115.733 366.062C112.854 365.55 110.352 365.012 108.334 364.501L109.302 350.644H109.275ZM89.2568 371.685C90.6021 371.712 92.0282 371.82 93.5349 372.008L91.8936 398.215C90.3061 398.215 88.8801 398.323 87.5617 398.484L89.2568 371.685ZM96.2794 403.973H96.6023C101.257 404.054 104.809 405.345 107.177 407.848C108.441 409.166 109.302 410.807 109.921 412.556C108.28 411.157 105.939 410.027 102.576 409.65C91.7053 408.413 88.1267 416.027 86.9697 420.628C85.8127 420.628 84.7096 420.655 83.714 420.736C82.2072 420.844 81.0234 420.978 80.1085 421.193L80.1623 420.521C80.2162 419.848 81.3462 404 96.2525 404L96.2794 403.973ZM77.6331 397.435L77.7138 396.601L79.1668 396.789H79.2475C82.1803 396.789 83.6871 391.596 83.8755 386.403C84.0369 382.071 83.2566 377.685 81.3193 376.232C81.1579 376.044 80.9426 375.856 80.6467 375.802L79.4628 375.533L79.7049 372.546C80.9157 372.277 83.3911 371.82 86.7007 371.712L84.9786 398.915C83.6602 399.184 82.5032 399.534 81.4808 399.91C79.6242 400.206 78.2789 398.511 77.6331 397.462V397.435ZM78.0367 442.88L79.8664 423.938C79.8664 423.938 79.9202 423.884 79.9202 423.857C80.5659 423.534 82.7992 423.185 86.4854 423.131C85.8665 427.247 84.4943 438.602 84.1176 441.858C81.8037 442.019 79.6511 442.342 78.0367 442.88ZM86.9428 548.354L82.1534 548.004L83.418 533.421C84.1983 533.448 85.0324 533.502 85.9204 533.582C92.5125 534.067 96.414 534.982 97.3557 535.439L95.8758 550.641C93.8309 550.238 91.5708 550.157 89.4182 550.641C88.8801 549.188 88.0729 548.65 87.8038 548.543L87.4271 548.435C87.4271 548.435 87.3464 548.435 87.2926 548.435C87.1581 548.381 87.0504 548.327 86.9159 548.327L86.9428 548.354ZM87.0773 551.556C87.0773 551.556 86.9428 551.61 86.889 551.637C86.9428 551.556 86.9966 551.448 87.0235 551.368L87.0773 551.529V551.556ZM71.9289 550.265C72.1711 550.076 72.5478 549.834 72.9245 549.861L75.9649 550.076C75.9649 550.076 76.0994 550.13 76.2071 550.157H76.4223C76.4223 550.157 76.5838 550.157 76.6645 550.157L84.5481 550.722C82.5032 554.623 81.0503 563.099 80.2431 568.992L65.552 567.727C67.0857 558.39 69.7764 552.013 71.9558 550.291L71.9289 550.265ZM79.113 579.943C78.9246 582.929 78.7632 586.508 78.8708 589.871C78.8708 589.952 78.817 590.059 78.817 590.167C78.817 590.248 78.8708 590.329 78.8708 590.436C78.9785 593.208 79.2744 595.737 79.8933 597.539L67.8122 595.737C65.9556 595.522 64.126 589.01 64.4489 578.759L79.113 579.969V579.943ZM64.5834 576.203C64.6641 574.884 64.7717 573.566 64.9332 572.14C65.0139 571.467 65.0946 570.875 65.2023 570.229L79.9202 571.521C79.8126 572.382 79.7318 573.162 79.6511 573.754C79.5973 574.265 79.4628 575.638 79.3013 577.44L64.5834 576.229V576.203ZM59.2828 558.525C60.3591 554.408 64.7717 552.632 67.6508 551.879C65.283 556.292 63.3188 563.583 62.404 571.871C62.0811 574.696 61.9196 577.548 61.8927 580.292C59.9555 579.7 58.8523 577.413 58.2334 575.368C57.5608 569.234 58.1258 562.938 59.2559 558.525H59.2828ZM59.3366 587.665C60.7358 589.252 62.2425 589.387 62.4847 589.387C63.265 594.418 64.9063 597.943 67.5162 598.266L81.4 600.338L81.7767 600.392H82.0189C82.0189 600.392 82.1534 600.338 82.2342 600.311C82.2342 600.311 82.2611 600.311 82.288 600.311H82.4494C82.4494 600.311 82.6916 600.311 82.7992 600.257C81.8575 615.352 80.2431 641.855 78.8439 664.887C68.3503 664.106 59.1483 658.591 53.4979 650.465C56.5114 621.459 58.8792 593.477 59.3366 587.638V587.665ZM50.6996 675.596C51.5337 668.654 52.314 661.416 53.0943 654.151C59.229 661.658 68.3772 666.663 78.6825 667.416C77.4986 687.058 76.503 703.713 76.2878 707.722C75.8573 716.709 73.1666 720.584 72.1442 721.741C63.3995 719.884 55.7042 721.014 50.5381 722.413C49.0045 719.749 46.6098 710.171 50.7265 675.596H50.6996ZM42.1971 749.481L42.8697 745.741C45.399 737.615 54.2782 731.561 64.8525 731.561C69.1575 731.561 73.1935 732.584 76.6376 734.333C76.7183 735.436 75.7766 740.279 74.8886 744.127C71.2024 742.351 66.9781 741.329 62.4578 741.329C54.2243 741.329 46.7981 744.665 42.1433 749.992C42.1433 749.804 42.1433 749.643 42.1702 749.481H42.1971ZM71.4984 791.886C67.0319 792.72 61.516 793.178 55.3006 792.989C47.5515 792.747 40.9863 791.59 36.2238 790.003C36.2776 786.074 36.9772 767.32 46.0178 757.715C46.1793 757.526 46.2869 757.311 46.3138 757.069C53.3364 755.777 60.2245 755.939 63.1843 756.127C66.7897 756.342 72.0904 757.311 76.4492 759.437C70.6912 770.549 71.2562 787.581 71.4984 791.886ZM27.7751 784.325C28.0442 781.635 29.5241 769.527 35.309 762.827C36.735 761.159 38.0535 759.975 39.6948 759.087C39.7755 759.06 39.8562 759.006 39.9369 758.952C40.502 758.656 41.1208 758.414 41.7935 758.199C41.9549 758.253 42.1433 758.28 42.3047 758.28C34.8516 768.316 33.856 783.868 33.7215 789.061C30.3851 787.662 28.3133 786.047 27.9097 784.541C27.9097 784.46 27.8289 784.379 27.802 784.325H27.7751ZM55.3275 796.676C40.4751 796.218 30.0084 792.344 28.1249 788.819C33.2641 792.855 44.5918 795.196 55.2468 795.519C66.2516 795.841 77.8215 794.119 83.0683 790.326C82.0189 793.877 71.0679 797.16 55.3275 796.676ZM83.5526 784.89C83.4719 785.079 83.418 785.267 83.445 785.455V785.509V785.913C83.1221 787.931 79.6511 789.976 74.0814 791.321C73.8662 786.666 73.5164 770.791 78.7363 760.674C81.6422 762.585 83.7678 765.168 84.01 768.612C84.6288 778.433 83.6064 784.514 83.6064 784.568C83.6064 784.675 83.6064 784.783 83.6064 784.89H83.5526ZM77.2564 745.365C77.7407 743.266 78.7901 738.53 79.113 735.732C80.3507 736.566 81.4808 737.508 82.5032 738.53C82.4763 738.611 82.4225 738.692 82.4225 738.799C82.2342 741.329 81.3462 745.768 80.8619 748.082C79.7587 747.087 78.5479 746.199 77.2564 745.391V745.365ZM87.5886 750.665C87.3464 752.037 87.0774 753.625 86.8083 755.266C86.7276 755.562 86.6199 755.831 86.5123 756.127C85.7051 754.002 84.4674 752.011 82.9606 750.235C82.9606 750.208 83.0144 750.181 83.0144 750.154C83.0683 749.912 84.1445 745.015 84.6827 741.221C86.5392 743.938 87.5886 747.087 87.5886 750.423C87.5886 750.504 87.5886 750.611 87.5886 750.692V750.665ZM96.8175 714.341C96.7368 714.53 96.7099 714.718 96.7099 714.933C96.7099 714.933 96.7099 715.175 96.7368 715.498L96.4947 719.561C96.4947 721.767 96.2256 727.956 95.2301 730.135C95.1762 730.243 95.1762 730.324 95.1493 730.431C93.3466 732.18 90.8174 730.458 90.5214 730.243C85.167 726.234 79.8395 723.812 74.8079 722.386C76.3147 720.234 78.4134 715.848 78.817 707.803C79.0054 703.794 80.0009 687.139 81.2117 667.497C81.2655 667.497 81.3193 667.497 81.3731 667.497C87.9115 667.497 94.2614 665.775 99.8311 662.492L96.7906 714.314L96.8175 714.341ZM106.665 574.4C106.665 575.611 106.638 576.929 106.477 578.382C106.073 582.552 105.212 585.405 104.432 587.127C104.378 587.207 104.351 587.288 104.325 587.396C103.813 588.472 103.329 589.037 103.06 589.118C103.006 589.118 102.952 589.01 102.898 588.956C102.898 588.956 102.898 588.956 102.898 588.929L106.665 574.427V574.4ZM104.89 565.79C105.159 565.87 105.535 566.516 105.858 567.539C105.858 567.539 105.858 567.539 105.858 567.565L101.526 584.221C101.284 582.203 101.203 579.62 101.499 576.472C102.199 569.288 104.244 565.897 104.916 565.763L104.89 565.79ZM102.818 558.363C103.356 559.87 103.706 561.511 103.84 562.857C103.733 562.857 103.625 562.803 103.49 562.803L102.037 562.911C101.526 562.83 100.827 562.857 100.073 563.395C97.544 565.117 96.118 571.198 95.6606 575.88C95.0148 582.579 95.822 590.248 99.1046 591.163H99.293L102.468 591.62H102.629C102.629 591.62 102.737 591.62 102.764 591.62H103.033C103.383 591.647 103.706 591.566 104.002 591.432L100.019 659.479C94.4767 663.111 88.046 665.021 81.3731 665.021C83.3642 632.195 85.8396 592.32 86.0549 588.499C86.8083 587.638 87.4271 586.588 87.75 585.243C88.0729 583.925 88.3689 582.31 88.7456 580.481C89.7142 575.422 90.9519 569.099 93.3735 563.503C94.8534 560.085 98.1898 556.991 100.531 556.884C101.123 556.884 102.011 557.018 102.818 558.363ZM99.6428 554.489C96.1449 555.135 92.6201 558.875 91.0595 562.507C88.5034 568.373 87.2119 575.099 86.2701 579.996C85.9204 581.799 85.6244 583.36 85.3015 584.651C85.167 585.162 84.9786 585.593 84.7634 585.997C84.1176 585.916 83.5526 585.727 83.1221 585.297C81.6422 583.844 81.7498 580.83 81.7498 580.804H81.6153C81.7498 578.705 81.9382 576.472 82.2072 574.023C82.9875 566.893 83.9562 561.485 84.8979 557.664C84.9786 557.583 85.0594 557.476 85.0863 557.368C85.8935 555.377 87.2388 554.058 89.1492 553.386C92.5663 552.175 96.979 553.278 99.6428 554.489ZM97.6517 532.856C94.4767 531.753 88.3151 531.215 86.1356 531.053C85.5437 530.999 84.6827 530.946 83.6602 530.919L88.9608 469.814C89.8487 469.814 90.7905 469.868 91.8129 469.948C98.7548 470.459 102.683 471.751 103.463 472.397C103.463 472.424 103.517 472.451 103.517 472.504L97.6248 532.856H97.6517ZM103.813 469.733C101.069 468.495 96.118 467.715 92.0013 467.419C91.49 467.392 90.4676 467.311 89.203 467.284L90.3869 453.777C91.3286 453.777 92.2972 453.831 93.3735 453.912C100.154 454.396 104.19 455.688 105.078 456.333C105.078 456.387 105.078 456.414 105.105 456.441L103.813 469.706V469.733ZM106.127 453.993C105.239 453.481 104.109 453.105 103.033 452.836C100.504 452.163 97.1404 451.625 93.5618 451.383C92.9968 451.329 91.8398 451.275 90.4138 451.221L88.0998 444.252C89.8218 444.252 91.7053 444.279 93.7502 444.441C102.791 445.087 108.576 446.943 109.84 447.992L106.154 453.993H106.127ZM111.266 427.247C111.078 433.355 110.54 441.427 110.244 445.329C108.737 444.521 106.638 443.903 104.459 443.418L104.997 439.275C105.078 438.575 104.594 437.956 103.894 437.849C103.194 437.768 102.549 438.252 102.468 438.952L101.957 442.934C97.9476 442.234 94.2614 441.938 93.9385 441.938C91.9205 441.804 89.3375 441.696 86.7276 441.777C87.185 437.983 88.5572 426.682 89.0953 423.184C90.9788 423.211 93.1583 423.319 95.6068 423.534C104.809 424.315 109.975 425.821 110.944 426.548C110.997 426.763 111.132 426.925 111.293 427.086V427.274L111.266 427.247ZM95.7951 420.978C93.6426 420.79 91.5708 420.682 89.6335 420.628C90.8443 416.404 94.0193 411.211 102.333 412.153C111.293 413.175 111.266 420.332 111.24 420.628C111.24 420.79 111.266 420.924 111.32 421.059C111.32 422.054 111.347 423.023 111.32 423.965C107.822 422.27 100.638 421.382 95.7682 420.978H95.7951ZM101.903 399.076C99.1584 398.619 96.7099 398.35 94.4767 398.269L96.0911 372.439C97.1135 372.627 98.1629 372.869 99.2661 373.138C102.091 373.892 104.89 375.049 107.742 376.367L107.499 380.833C107.473 381.533 108.011 382.125 108.71 382.179H108.791C109.464 382.179 110.029 381.668 110.056 380.995L110.244 377.551C111.751 378.277 113.258 379.031 114.791 379.811C116.998 380.941 119.311 382.098 121.679 383.201C121.383 386.053 120.199 399.937 121.948 414.332C117.805 406.987 111.401 400.664 101.93 399.076H101.903ZM112.585 375.856C113.796 376.421 114.926 376.986 115.948 377.551H115.921C114.791 376.959 113.688 376.421 112.585 375.856ZM151.869 435.911C150.765 437.929 150.093 439.086 149.743 439.678C146.487 439.894 141.725 439.84 137.312 439.678C130.505 436.127 126.469 423.05 124.72 415.866C122.836 402.278 123.751 388.529 124.128 384.304C131.5 387.56 139.761 390.251 149.635 390.251H150.093C158.353 390.17 163.411 388.098 167.501 385.488L166.533 407.552C161.77 411.372 159.322 417.83 156.792 424.476C155.366 428.297 153.86 432.252 151.869 435.911ZM172.533 555.081C171.86 554.839 171.053 554.543 170.219 554.22C167.77 553.305 164.165 551.96 159.106 550.345L159.645 542.327L160.156 536.381C160.963 536.461 161.797 536.542 162.685 536.623C169.25 537.376 173.125 538.453 174.04 538.937C174.04 538.937 174.067 538.964 174.093 538.991L172.533 554.893C172.533 554.893 172.533 555 172.533 555.054V555.081ZM130.828 708.072L133.626 663.676C136.316 664.429 139.572 665.021 143.501 665.317H143.608C143.608 665.317 143.743 665.317 143.797 665.29L141.698 711.704C141.59 712.296 139.545 726.342 146.541 731.05C143.016 731.292 139.626 730.943 136.774 730.431C130.182 725.615 130.828 708.045 130.828 708.045V708.072ZM146.541 588.902C145.868 589.064 145.196 589.145 144.496 589.145C138.846 589.145 134.245 584.032 134.245 577.763C134.245 574.911 135.24 572.328 136.801 570.31L146.541 588.902ZM141.321 566.974C142.317 566.624 143.366 566.355 144.469 566.355C150.12 566.355 154.721 571.467 154.721 577.736C154.721 581.073 153.402 584.032 151.357 586.131L141.321 566.974ZM138.254 589.844C140.11 590.974 142.209 591.674 144.469 591.674C145.384 591.674 146.272 591.566 147.133 591.351L143.877 662.869C143.877 662.869 143.743 662.815 143.662 662.815C139.599 662.519 136.37 661.873 133.76 661.093L138.254 589.844ZM146.406 776.496C136.155 773.025 122.271 768.047 120.468 766.755C120.334 766.432 120.28 766.056 120.226 765.679C120.522 765.84 120.818 766.002 121.168 766.136C123.536 767.078 142.128 773.428 146.568 774.935L146.406 776.469V776.496ZM126.2 765.249C122.971 761.939 121.195 757.23 120.361 754.324C120.442 746.279 120.576 734.494 120.549 731.911C120.549 730.889 120.872 730.539 121.141 730.351C122.244 729.544 124.881 730.001 126.28 730.485H126.98C145.868 739.068 146.81 765.41 146.729 772.325C142.693 770.953 132.2 767.347 126.2 765.249ZM153.537 729.812C153.375 729.812 153.187 729.813 153.026 729.866C152.918 729.893 152.81 729.92 152.703 729.947C150.819 730.135 149.259 729.813 147.994 729.032C142.236 725.292 144.146 712.242 144.173 711.973L149.716 590.409C154.156 588.23 157.25 583.387 157.25 577.736C157.25 570.068 151.519 563.826 144.442 563.826C137.85 563.826 132.469 569.288 131.796 576.256C129.644 569.933 132.765 562.238 134.325 558.982C137.339 556.319 141.133 554.704 145.276 554.704C154.801 554.704 162.846 564.014 162.846 575.019C162.846 575.234 162.443 597.082 162.066 604.912C161.743 611.235 158.461 718.673 158.434 719.696C158.245 721.956 158.649 725.507 160.748 727.122C158.03 728.548 155.635 729.436 153.537 729.786V729.812ZM230.059 782.55C228.122 784.89 216.552 796.137 179.313 786.559C179.313 786.478 179.313 786.343 179.313 786.236C188.865 788.657 197.529 789.922 205.036 789.922C219.808 789.922 226.938 785.267 229.978 782.334C230.005 782.415 230.059 782.496 230.086 782.576L230.059 782.55ZM179.475 783.68C179.555 780.343 180.309 769.042 185.583 760.056C186.551 760.594 206.785 772.164 212.516 786.881C210.283 787.177 207.807 787.366 204.982 787.366C197.556 787.366 188.973 786.128 179.448 783.68H179.475ZM199.278 749.024C200.623 749.401 206.354 751.123 213.054 755.562C218.57 759.248 228.014 767.159 229.494 779.025C229.44 779.106 229.36 779.159 229.333 779.24C228.23 780.666 224.382 784.621 215.126 786.397C209.422 770.872 189.242 759.114 186.982 757.849C189.861 753.813 193.789 750.477 199.278 748.97V749.024ZM187.52 741.974C189.538 742.62 190.695 745.768 190.695 750.396C190.641 750.423 190.587 750.45 190.56 750.504C187.17 748.324 183.753 745.499 182.112 744.1C184.183 742.324 186.121 741.544 187.52 742.001V741.974ZM183.645 740.064C178.775 742.324 173.367 749.535 169.923 759.06C166.829 767.536 166.102 775.823 167.878 780.72L158.784 776.926C158.784 776.926 158.757 776.926 158.73 776.926C158.703 776.926 158.703 776.926 158.676 776.926C157.815 776.657 157.115 775.957 156.55 774.827C154.505 770.684 155.232 762.154 158.326 753.598C162.766 741.329 170.057 734.118 173.851 735.221L183.645 740.064ZM178.56 556.668C180.174 556.668 181.923 557.341 183.78 558.686C189.027 562.48 187.601 586.131 185.959 592.804C185.26 595.656 181.197 596.06 178.856 596.06C178.452 596.06 178.102 596.06 177.78 596.033C180.47 571.413 177.376 560.462 176.165 557.26C176.703 556.964 177.511 556.668 178.614 556.668H178.56ZM175.681 598.266C175.815 598.347 175.977 598.427 176.165 598.427C176.219 598.427 177.322 598.589 178.829 598.589C181.17 598.589 183.107 598.212 184.641 597.539L183.887 629.02L180.686 628.832C180.013 628.778 179.394 629.316 179.34 630.016C179.286 630.715 179.825 631.334 180.524 631.361L183.834 631.576L181.681 722.198C178.479 721.66 170.784 720.88 164.676 724.835C164.246 725.104 163.869 725.319 163.438 725.588C163.304 725.507 163.142 725.454 162.981 725.454C160.64 725.212 160.936 719.992 160.936 719.884C160.963 718.808 164.246 611.37 164.568 605.073C164.972 597.217 165.349 575.315 165.376 575.072C165.376 568.427 162.712 562.346 158.568 558.094C162.012 560.408 165.483 564.175 167.959 570.391C170.031 575.611 171.349 585.566 171.51 586.669C171.457 588.311 171.86 590.813 173.528 592.293C173.205 596.598 175.6 598.185 175.708 598.266H175.681ZM174.282 536.354C171.134 535.143 165.08 534.363 162.927 534.121C162.335 534.04 161.393 533.959 160.344 533.852L165.833 471.347C166.748 471.347 167.69 471.401 168.712 471.482C175.654 471.966 179.609 473.258 180.363 473.93C180.363 473.957 180.39 473.984 180.416 474.011L174.282 536.354ZM180.686 471.267C177.941 470.029 172.99 469.276 168.9 468.98C168.389 468.953 167.34 468.872 166.075 468.845L167.259 455.311C168.201 455.311 169.169 455.365 170.246 455.446C176.999 455.93 181.035 457.194 181.95 457.867C181.95 457.921 181.95 457.948 181.977 458.002L180.686 471.267ZM183 455.553C182.112 455.042 180.982 454.692 179.905 454.396C177.376 453.724 174.013 453.185 170.434 452.943C169.869 452.889 168.712 452.836 167.286 452.782L164.972 445.813C166.694 445.813 168.578 445.84 170.649 446.001C179.69 446.647 185.475 448.504 186.74 449.526L183.053 455.526L183 455.553ZM188.112 428.808C187.923 434.916 187.385 442.988 187.116 446.889C182.273 444.333 171.376 443.526 170.784 443.472C168.766 443.338 166.183 443.23 163.573 443.311C164.03 439.463 165.429 427.974 165.941 424.611C167.878 424.691 170.031 424.853 172.425 425.041C181.627 425.821 186.793 427.328 187.762 428.055C187.816 428.27 187.95 428.431 188.112 428.593V428.808ZM172.64 422.539C170.38 422.35 168.362 422.216 166.479 422.135C167.717 417.938 170.892 412.799 179.152 413.74C188.112 414.763 188.085 421.92 188.085 422.216C188.085 422.377 188.085 422.566 188.166 422.7C188.166 423.669 188.166 424.611 188.166 425.525C184.668 423.83 177.457 422.942 172.614 422.539H172.64ZM170.057 383.686C170.784 383.147 171.483 382.609 172.183 382.071C172.963 381.479 173.744 380.887 174.551 380.295L173.125 404.377C171.645 404.7 170.3 405.157 169.089 405.776L170.057 383.686ZM194.65 409.301C193.52 408.09 191.744 406.879 189.053 405.91L189.296 401.309C189.323 400.61 188.784 400.018 188.085 399.964C187.385 399.91 186.793 400.475 186.74 401.175L186.524 405.13C184.722 404.673 182.623 404.296 180.12 404.054C178.506 403.919 177.053 403.919 175.654 404.054L177.161 378.546C181.385 375.99 186.686 374.268 195.834 375.049C196.022 379.004 196.48 393.399 194.623 409.301H194.65ZM175.789 367.838C176.219 367.461 176.434 367.057 176.542 366.707C185.206 367.38 190.614 370.259 193.493 372.358C181.331 371.874 175.923 376.044 170.649 380.08C165.591 383.955 160.828 387.587 150.039 387.695C137.097 387.748 126.926 383.067 117.885 378.546C113.849 374.537 115.276 370.582 116.325 368.752C122.702 369.802 130.155 370.582 137.904 370.986C141.913 371.201 146.111 371.309 150.2 371.309C162.093 371.309 173.044 370.34 175.789 367.838ZM173.34 351.882L174.093 365.954C173.448 366.734 170.515 367.515 165.591 368.053L165.456 354.277C168.874 353.685 171.591 352.877 173.34 351.882ZM163.196 352.016L163.869 341.926L166.264 339.505L165.752 351.586C164.945 351.747 164.111 351.882 163.196 352.016ZM177.564 308.697L176.972 311.63C176.919 311.791 176.892 311.899 176.892 311.926C176.892 311.979 176.892 312.033 176.892 312.087L174.766 322.5L162.039 336.007L160.694 337.433C163.734 329.146 169.815 312.033 176.972 289.647C178.775 297.826 178.21 304.849 177.564 308.724V308.697ZM180.39 294.759C180.04 291.746 179.448 288.49 178.398 285.073C178.91 283.485 179.394 281.898 179.905 280.256C180.712 282.866 181.331 285.53 181.708 288.248L180.39 294.732V294.759ZM183 281.871C182.515 279.987 181.923 278.131 181.224 276.328C181.224 276.274 181.17 276.247 181.143 276.194C183.484 268.606 185.69 261.099 187.87 253.619V253.727C188.219 253.727 188.408 254.238 188.488 254.883L183 281.871ZM188.112 269.413L188.569 267.153H188.677C189.403 266.803 205.628 259.431 215.126 239.789C214.911 241.376 214.669 242.453 214.588 242.802C206.381 260.507 192.471 267.557 188.112 269.386V269.413ZM204.74 340.258C200.408 341.039 195.78 335.254 194.462 327.774C193.143 320.24 195.619 313.217 199.87 312.437C200.139 312.383 200.381 312.356 200.65 312.356C203.664 312.356 206.731 315.37 208.615 319.782C208.642 319.863 208.668 319.917 208.722 319.998C209.341 321.504 209.852 323.173 210.148 324.921C211.467 332.455 208.991 339.478 204.74 340.258ZM210.821 318.464L210.767 318.356C210.767 318.329 210.74 318.302 210.713 318.276C208.803 314.132 205.924 311.118 202.776 310.177L199.52 294.463C199.52 294.463 199.547 294.329 199.547 294.248C199.547 293.791 199.305 284.696 206.516 280.014L213.915 314.751C214.615 317.953 214.749 321.477 214.13 321.962C213.996 321.935 213.888 321.962 213.754 321.962C212.301 321.208 211.359 319.567 210.982 318.787C210.929 318.679 210.875 318.572 210.821 318.464ZM214.238 347.55C213.969 346.985 213.727 346.447 213.512 346.016C210.875 340.635 212.247 335.388 212.274 335.281C212.301 335.173 212.274 335.065 212.274 334.958C213.135 331.944 213.323 328.339 212.651 324.491C212.651 324.41 212.597 324.303 212.597 324.222C212.731 324.303 212.839 324.383 213 324.437C213.754 324.76 214.534 324.921 215.341 324.921C216.202 324.921 217.09 324.733 218.005 324.356C222.445 322.527 221.315 314.939 220.427 310.392C221.126 310.769 222.095 311.603 222.902 313.459C223.817 315.585 229.79 329.523 235.441 342.626C231.216 341.657 224.543 342.976 218.651 345.451C217.144 346.07 215.664 346.797 214.265 347.577L214.238 347.55ZM225.916 423.642C225.727 423.669 225.566 423.723 225.404 423.75C225.889 423.427 226.508 423.023 227.207 422.619C226.75 422.996 226.319 423.346 225.916 423.669V423.642ZM223.333 422.108L222.014 418.422C222.525 417.857 223.978 416.835 226.346 415.489L227.96 419.256C225.862 420.413 224.328 421.355 223.333 422.135V422.108ZM227.449 375.129C226.346 374.645 225.62 373.219 225.377 372.654C225.297 372.492 219.001 358.017 215.261 349.891C216.579 349.164 217.978 348.465 219.566 347.792C229.064 343.837 236.113 344.348 237.001 346.474C237.001 346.501 237.055 346.528 237.055 346.581C241.79 357.586 245.853 367.084 245.853 367.084C245.88 367.165 246.284 368.026 247.01 369.156C241.871 369.856 233.961 373.031 229.387 375.022C228.66 375.345 228.014 375.371 227.422 375.129H227.449ZM230.194 418.018L228.579 414.251C230.544 413.202 232.884 412.045 235.602 410.781L237.27 414.574C234.66 415.785 232.292 416.942 230.167 418.045L230.194 418.018ZM247.01 428.377C247.064 428.539 247.118 428.673 247.172 428.835C247.172 428.889 247.172 428.916 247.172 428.969C248.167 437.149 242.248 440.997 239.88 442.207C239.396 441.024 238.911 439.813 238.346 438.467C235.602 431.902 237.459 424.234 238.104 421.92C240.849 420.575 244.347 418.906 247.952 417.238C246.634 419.606 245.315 423.534 247.01 428.351V428.377ZM251.504 416.565L251.746 416.216C251.746 416.216 252.715 414.655 258.042 413.39C259.199 413.121 260.275 412.987 261.298 412.987C265.737 412.987 267.244 415.651 267.244 415.678C267.244 415.678 270.796 424.234 272.249 427.812C273.002 429.642 272.814 431.203 272.572 432.171C270.365 431.526 268.051 431.176 265.657 431.176C259.441 431.176 254.302 433.409 252.069 434.566C251.585 433.49 250.75 431.418 249.378 427.543C247.145 421.22 251.315 416.754 251.504 416.565ZM268.832 461.742C268.778 461.742 268.751 461.742 268.724 461.742C267.352 461.742 266.276 461.311 265.415 460.423C263.719 458.647 262.885 454.961 263.047 449.768C263.988 449.338 266.033 448.611 268.59 448.611C269.585 448.611 270.554 448.719 271.522 448.961C271.495 450.952 271.469 455.311 271.926 457.356C272.168 458.352 272.141 459.751 271.388 460.719C270.85 461.392 270.016 461.742 268.859 461.769L268.832 461.742ZM269.854 469.195C270.769 469.383 271.549 469.652 271.899 469.894C271.549 470.11 270.742 470.352 269.827 470.459V469.195H269.854ZM269.639 477.563C270.554 477.751 271.307 478.02 271.657 478.262C271.307 478.478 270.5 478.693 269.585 478.827V477.563H269.639ZM267.486 464.944V466.262C266.437 466.047 265.603 465.778 265.388 465.589C265.684 465.347 266.518 465.105 267.486 464.944ZM261.486 443.122C263.639 442.127 268.347 440.432 271.684 442.503C271.63 443.607 271.549 445.329 271.469 446.351C270.527 446.163 269.585 446.055 268.643 446.055C266.356 446.055 264.446 446.539 263.127 447.024C262.778 445.598 262.078 444.118 261.513 443.095L261.486 443.122ZM271.872 437.257C271.818 437.849 271.738 438.521 271.657 439.651C266.975 437.822 261.379 440.324 259.63 441.212C257.881 440.432 255.351 438.198 253.71 436.638C255.89 435.562 260.383 433.732 265.737 433.732C267.944 433.732 270.069 434.055 272.087 434.674C272.034 435.911 271.953 436.557 271.872 437.257ZM250.024 461.688C249.916 454.8 253.656 448.396 259.63 445.033C259.818 445.436 260.033 445.867 260.195 446.297C256.589 448.396 253.845 451.732 252.526 455.688C252.311 456.36 252.661 457.06 253.307 457.302L253.71 457.383C254.248 457.383 254.733 457.06 254.921 456.522C255.943 453.508 257.961 450.952 260.571 449.149C260.329 455.526 261.325 459.804 263.639 462.226C263.962 462.576 264.311 462.872 264.688 463.141C263.693 463.598 262.912 464.271 262.805 465.347C262.805 465.428 262.805 465.482 262.805 465.562C262.805 465.616 262.805 465.67 262.805 465.724C262.858 467.769 265.468 468.603 267.406 468.926L267.352 470.782C265.415 470.998 262.778 471.67 262.589 473.715C262.589 473.769 262.589 473.85 262.589 473.904C262.589 473.957 262.562 474.011 262.562 474.092C262.616 476.137 265.226 476.971 267.163 477.294L267.083 480.119C257.665 479.258 250.185 471.401 250.024 461.742V461.688ZM267.271 473.312V474.657C266.222 474.442 265.388 474.173 265.145 473.984C265.441 473.742 266.276 473.473 267.271 473.338V473.312ZM257.746 488.433C256.212 488.164 255.19 487.868 254.679 487.626C254.679 487.599 254.679 487.545 254.679 487.518L254.76 483.832C255.647 484.101 256.697 484.343 257.827 484.532L257.746 488.433ZM260.275 488.81L260.356 484.881C263.639 485.258 266.948 485.393 268.051 485.42L267.971 489.348C264.903 489.267 262.347 489.052 260.302 488.81H260.275ZM254.329 773.025L249.701 772.675L248.975 759.41C248.975 759.41 249.055 759.383 249.082 759.356C249.109 759.329 250.024 758.603 252.257 758.791L253.011 758.845C255.567 759.033 256.428 759.222 256.643 760.083C256.643 760.163 256.751 760.217 256.777 760.298L254.329 773.025ZM256.078 751.096C255.89 751.311 255.19 751.876 253.172 751.607C253.118 751.607 253.091 751.607 253.064 751.607L252.15 751.392C250.697 750.934 250.589 750.1 250.562 750.073L252.795 703.363L259.845 592.777C260.625 592.912 261.459 592.992 262.24 593.046C262.616 593.046 263.127 593.1 263.693 593.1C264.5 593.1 265.415 593.046 266.249 592.912L256.078 751.149V751.096ZM266.41 590.221C265.899 590.382 264.554 590.625 262.401 590.49C261.432 590.436 260.652 590.302 260.006 590.194L266.087 494.971C266.625 493.868 267.675 492.55 269.746 491.931C270.042 491.931 270.338 491.931 270.634 491.931C271.334 491.931 272.034 491.931 272.733 491.931L266.41 590.248V590.221ZM277.011 489.133C275.289 489.294 273.137 489.402 270.5 489.402L270.608 485.473C270.608 485.473 270.769 485.473 270.877 485.473C273.137 485.473 275.262 485.393 277.119 485.231L277.038 489.133H277.011ZM281.935 484.451L281.774 488.029C281.774 488.029 281.559 488.191 281.505 488.325C281.209 488.487 280.509 488.648 279.54 488.837L279.621 484.962C280.536 484.828 281.289 484.666 281.908 484.478L281.935 484.451ZM274.132 479.366C274.24 479.123 274.348 478.881 274.374 478.585C274.374 478.505 274.374 478.451 274.374 478.397C274.374 478.316 274.401 478.262 274.401 478.182C274.321 476.137 271.63 475.356 269.773 475.034L269.827 473.096C271.711 472.908 274.455 472.289 274.617 470.217C274.617 470.137 274.617 470.083 274.617 470.002C274.617 469.921 274.643 469.868 274.643 469.787C274.563 467.742 271.872 466.962 270.016 466.639L270.096 464.136C271.791 463.84 272.868 463.006 273.46 462.253C274.563 460.854 274.939 458.809 274.482 456.764C274.052 454.827 274.105 449.795 274.159 448.019C274.159 447.75 274.078 447.508 273.944 447.293C274.078 446.432 274.186 444.495 274.24 443.391C281.989 445.732 287.478 452.916 287.612 461.042C287.747 469.652 282.07 476.998 274.186 479.339L274.132 479.366ZM283.711 446.27C285.164 444.629 286.079 442.584 286.456 440.647C288.393 443.418 290.68 446.889 291.191 448.504C292.079 451.275 289.523 452.782 288.393 453.293C287.29 450.656 285.702 448.261 283.711 446.27ZM297.084 465.374C296.841 465.643 296.411 465.67 296.061 465.616C295.308 465.536 292.671 464.836 289.9 459.293C289.765 458.056 289.55 456.872 289.227 455.688C290.976 454.934 292.24 453.858 293.048 452.567C294.366 455.446 296.33 459.966 297.191 463.141C297.514 464.325 297.353 465.051 297.111 465.347L297.084 465.374Z" fill="black"/>
</svg>